<svg width="212" height="37" viewBox="0 0 212 37" fill="none" xmlns="http://www.w3.org/2000/svg">
<rect width="212" height="37" fill="black" fill-opacity="0"/>
<path d="M12.8799 2.98411C10.3101 5.12566 9.97581 8.92991 12.1331 11.481L12.1343 11.4826L14.0158 13.7107L26.6148 28.6451C28.772 31.1963 32.6042 31.5283 35.174 29.3866C35.1744 29.3862 35.1749 29.3857 35.1755 29.3853C37.7453 27.2438 38.0796 23.4394 35.9224 20.8884C35.922 20.8879 35.9215 20.8873 35.9211 20.8869L21.4327 3.72657C19.2761 1.17927 15.449 0.846993 12.8799 2.98411Z" fill="#949494"/>
<path d="M7.06225 16.7266C10.9627 16.7266 14.1245 19.8654 14.1245 23.7374C14.1245 27.6093 10.9627 30.7483 7.06225 30.7483C3.16197 30.7483 0 27.6093 0 23.7374C0 19.8654 3.16197 16.7266 7.06225 16.7266Z" fill="#949494"/>
<path d="M61.4414 29.7459H58.6634C58.3736 29.7459 58.1521 29.5256 58.1521 29.2374V27.6611C56.959 29.2035 55.1524 30.1866 52.6811 30.1866C47.8067 30.1866 43.9719 26.373 43.9719 21.0679C43.9719 15.7628 47.8067 11.9492 52.6811 11.9492C55.1524 11.9492 56.959 12.9662 58.1521 14.4916V12.9492C58.1521 12.6611 58.3736 12.4407 58.6634 12.4407H61.4414C61.7312 12.4407 61.9527 12.6611 61.9527 12.9492V29.2544C61.9527 29.5256 61.7312 29.7459 61.4414 29.7459ZM47.8749 21.1018C47.8749 24.1357 49.8519 26.6442 53.1242 26.6442C56.2773 26.6442 58.3736 24.2543 58.3736 21.1018C58.3736 17.9323 56.2602 15.5594 53.1242 15.5594C49.8689 15.5425 47.8749 18.0509 47.8749 21.1018Z" fill="#949494"/>
<path d="M83.7003 21.1018C83.7003 26.4069 79.8656 30.2205 74.9912 30.2205C72.5199 30.2205 70.7303 29.2205 69.5373 27.712V36.4917C69.5373 36.7798 69.3157 37.0001 69.026 37.0001H66.2479C65.9581 37.0001 65.7366 36.7798 65.7366 36.4917V12.9492C65.7366 12.6611 65.9581 12.4407 66.2479 12.4407H69.026C69.3157 12.4407 69.5373 12.6611 69.5373 12.9492V14.5085C70.7303 12.9831 72.5199 12.0001 74.9912 12.0001C79.8656 11.9831 83.7003 15.7967 83.7003 21.1018ZM69.2816 21.1018C69.2816 24.2713 71.395 26.6442 74.531 26.6442C77.8033 26.6442 79.7804 24.1357 79.7804 21.1018C79.7804 18.0679 77.8033 15.5594 74.531 15.5594C71.395 15.5424 69.2816 17.9323 69.2816 21.1018Z" fill="#949494"/>
<path d="M97.8633 12.9166L97.1986 15.6285C97.1304 15.9335 96.8066 16.0861 96.5169 15.9844C95.784 15.7132 94.8978 15.5776 94.1649 15.5776C91.7447 15.5776 90.0233 17.2725 90.0233 20.2217V29.2387C90.0233 29.5268 89.8018 29.7471 89.512 29.7471H86.734C86.4442 29.7471 86.2227 29.5268 86.2227 29.2387V12.9505C86.2227 12.6623 86.4442 12.442 86.734 12.442H89.478C89.7677 12.442 89.9893 12.6623 89.9893 12.9505V14.3912C91.1312 12.7471 92.9207 11.9844 95.0512 11.9844C96.0056 11.9844 96.7896 12.0861 97.5224 12.3064C97.7611 12.3912 97.9144 12.6623 97.8633 12.9166Z" fill="#949494"/>
<path d="M104.238 6.45923C104.238 7.96771 103.062 9.1033 101.545 9.1033C100.028 9.1033 98.886 7.96771 98.886 6.45923C98.886 4.95075 100.028 3.78125 101.545 3.78125C103.062 3.78125 104.238 4.95075 104.238 6.45923ZM102.959 29.7474H100.164C99.8745 29.7474 99.6529 29.5271 99.6529 29.239V12.9508C99.6529 12.6626 99.8745 12.4423 100.164 12.4423H102.959C103.249 12.4423 103.471 12.6626 103.471 12.9508V29.2559C103.471 29.5271 103.249 29.7474 102.959 29.7474Z" fill="#949494"/>
<path d="M110.561 29.7436H107.765C107.476 29.7436 107.254 29.5233 107.254 29.2351V4.23504C107.254 3.9469 107.476 3.72656 107.765 3.72656H110.561C110.85 3.72656 111.072 3.9469 111.072 4.23504V29.2521C111.072 29.5233 110.85 29.7436 110.561 29.7436Z" fill="#949494"/>
<path d="M131.064 29.7459H128.286C127.996 29.7459 127.775 29.5256 127.775 29.2374V27.6611C126.582 29.2035 124.775 30.1866 122.304 30.1866C117.429 30.1866 113.594 26.373 113.594 21.0679C113.594 15.7628 117.429 11.9492 122.304 11.9492C124.775 11.9492 126.582 12.9662 127.775 14.4916V12.9492C127.775 12.6611 127.996 12.4407 128.286 12.4407H131.064C131.354 12.4407 131.575 12.6611 131.575 12.9492V29.2544C131.575 29.5256 131.354 29.7459 131.064 29.7459ZM117.514 21.1018C117.514 24.1357 119.492 26.6442 122.764 26.6442C125.917 26.6442 128.013 24.2543 128.013 21.1018C128.013 17.9323 125.9 15.5594 122.764 15.5594C119.492 15.5425 117.514 18.0509 117.514 21.1018Z" fill="#949494"/>
<path d="M153.323 21.0995C153.323 26.4046 149.488 30.2182 144.613 30.2182C142.142 30.2182 140.353 29.2182 139.16 27.7097V29.269C139.16 29.5572 138.938 29.7775 138.648 29.7775H135.87C135.58 29.7775 135.359 29.5572 135.359 29.269V4.23504C135.359 3.9469 135.58 3.72656 135.87 3.72656H138.648C138.938 3.72656 139.16 3.9469 139.16 4.23504V14.5063C140.353 12.9808 142.142 11.9978 144.613 11.9978C149.488 11.9808 153.323 15.7944 153.323 21.0995ZM138.904 21.0995C138.904 24.269 141.017 26.6419 144.153 26.6419C147.426 26.6419 149.403 24.1334 149.403 21.0995C149.403 18.0656 147.426 15.5571 144.153 15.5571C141.017 15.5402 138.904 17.93 138.904 21.0995Z" fill="#949494"/>
<path d="M172.462 29.7459H169.684C169.395 29.7459 169.173 29.5256 169.173 29.2374V27.6611C167.98 29.2035 166.173 30.1866 163.702 30.1866C158.828 30.1866 154.993 26.373 154.993 21.0679C154.993 15.7628 158.828 11.9492 163.702 11.9492C166.173 11.9492 167.98 12.9662 169.173 14.4916V12.9492C169.173 12.6611 169.395 12.4407 169.684 12.4407H172.462C172.752 12.4407 172.974 12.6611 172.974 12.9492V29.2544C172.974 29.5256 172.752 29.7459 172.462 29.7459ZM158.913 21.1018C158.913 24.1357 160.89 26.6442 164.162 26.6442C167.315 26.6442 169.412 24.2543 169.412 21.1018C169.412 17.9323 167.298 15.5594 164.162 15.5594C160.89 15.5425 158.913 18.0509 158.913 21.1018Z" fill="#949494"/>
<path d="M192.949 18.8645V29.2374C192.949 29.5256 192.727 29.7459 192.437 29.7459H189.642C189.352 29.7459 189.131 29.5256 189.131 29.2374V20.1187C189.131 17.2035 187.614 15.5764 185.074 15.5764C182.62 15.5764 180.558 17.1865 180.558 20.1526V29.2374C180.558 29.5256 180.336 29.7459 180.047 29.7459H177.252C176.962 29.7459 176.74 29.5256 176.74 29.2374V12.9492C176.74 12.6611 176.962 12.4408 177.252 12.4408H180.013C180.302 12.4408 180.524 12.6611 180.524 12.9492V14.5594C181.921 12.5086 184.086 12.0001 185.876 12.0001C190.034 11.9831 192.949 14.8136 192.949 18.8645Z" fill="#949494"/>
<path d="M200.039 19.0148H201.948L207.538 12.6079C207.64 12.4893 207.776 12.4385 207.93 12.4385H211.338C211.782 12.4385 212.02 12.9639 211.713 13.2859L205.186 20.591L211.884 28.93C212.157 29.269 211.918 29.7606 211.492 29.7606H207.981C207.828 29.7606 207.674 29.6928 207.572 29.5741L201.93 22.4724H200.039V29.269C200.039 29.5572 199.817 29.7775 199.527 29.7775H196.732C196.443 29.7775 196.221 29.5572 196.221 29.269V4.23504C196.221 3.9469 196.443 3.72656 196.732 3.72656H199.527C199.817 3.72656 200.039 3.9469 200.039 4.23504V19.0148Z" fill="#949494"/>
</svg>
