<svg width="179" height="53" viewBox="0 0 179 53" fill="none" xmlns="http://www.w3.org/2000/svg">
<rect width="179" height="53" fill="black" fill-opacity="0"/>
<path d="M77.7639 46.026V52.0286H77.1243V46.0375H76.3802V45.6585H77.1243V44.6415C77.1243 43.553 77.717 42.7502 78.9466 42.7502V43.1494C78.3185 43.2102 77.7639 43.5389 77.7639 44.5375V45.6585H78.9466V46.026H77.7639ZM73.5534 45.9546C72.1236 45.9546 71.8498 47.5163 71.8498 48.8612C71.8498 50.2184 72.159 51.6875 73.5534 51.6875C74.9708 51.6875 75.233 50.2069 75.233 48.8612C75.233 47.5163 74.9708 45.9546 73.5534 45.9546V45.9546ZM73.5534 52.1484C71.8755 52.1484 71.2147 50.7031 71.2147 48.8462C71.2147 46.9602 71.8755 45.5413 73.5286 45.5413C75.2206 45.5413 75.869 46.9602 75.869 48.8462C75.869 50.7031 75.2091 52.1484 73.5534 52.1484ZM67.9732 46.0956C67.4169 45.9396 66.7552 46.0137 66.4008 46.2736V52.0286H65.763V45.989C66.3441 45.6964 66.7676 45.5413 68.161 45.5413L67.9732 46.0956V46.0956ZM62.4994 46.0137C61.4833 46.0137 60.6905 46.7918 60.6905 48.7298L64.1657 48.2002C64.1657 46.6041 63.5288 46.0137 62.4994 46.0137V46.0137ZM60.7011 49.1238C60.7968 50.8124 61.5772 51.6505 62.8431 51.6505C63.5527 51.6505 64.047 51.4584 64.3668 51.2733L64.5688 51.7333C64.226 51.9475 63.5864 52.1484 62.8307 52.1484C61.2937 52.1484 60.1005 51.2134 60.1005 48.825C60.1005 46.5795 61.1759 45.5413 62.5109 45.5413C63.8849 45.5413 64.7938 46.4023 64.7938 48.5166L60.7011 49.1238V49.1238ZM56.8378 45.9758C56.2691 45.9758 55.9501 46.0709 55.61 46.2604V51.5086C55.8917 51.6505 56.2823 51.6954 56.6597 51.6954C58.1728 51.6954 58.7504 50.4554 58.7504 48.7695C58.7504 47.2907 58.1489 45.9758 56.8378 45.9758V45.9758ZM56.6819 52.1484C55.9386 52.1484 55.3203 51.9475 54.9801 51.7069V42.7502H55.61V45.9035C55.9271 45.7299 56.2921 45.5862 56.9662 45.5862C58.4093 45.5862 59.3926 46.8148 59.3926 48.7695C59.3926 50.7295 58.4687 52.1484 56.6819 52.1484ZM53.1127 52.0286V47.3832C53.1127 46.6773 52.7814 45.989 51.7201 45.989C51.0911 45.989 50.5959 46.2146 50.1689 46.6861V52.0286H49.5329V47.3233C49.5329 46.5186 48.9872 45.9758 47.9108 45.9758C47.3084 45.9758 46.978 46.0498 46.5749 46.2357V52.0286H45.9371V45.989C46.458 45.7061 46.9895 45.5413 47.9578 45.5413C48.9163 45.5413 49.4824 45.8462 49.8748 46.3688C50.347 45.8603 50.9848 45.5413 51.7874 45.5413C53.3155 45.5413 53.7505 46.5927 53.7505 47.3612V52.0286H53.1127V52.0286ZM42.6753 46.0137C41.6583 46.0137 40.8672 46.7918 40.8672 48.7298L44.3399 48.2002C44.3399 46.6041 43.7029 46.0137 42.6753 46.0137V46.0137ZM40.8761 49.1238C40.9753 50.8124 41.7522 51.6505 43.0172 51.6505C43.7259 51.6505 44.2256 51.4584 44.5454 51.2733L44.7447 51.7333C44.4019 51.9475 43.7623 52.1484 43.004 52.1484C41.4678 52.1484 40.2728 51.2134 40.2728 48.825C40.2728 46.5795 41.35 45.5413 42.6868 45.5413C44.0599 45.5413 44.9679 46.4023 44.9679 48.5166L40.8761 49.1238V49.1238ZM38.8678 52.0286L38.1228 45.2319C38.0634 44.7322 38.0634 44.2942 38.0634 44.2942H38.0395C38.0395 44.2942 37.958 44.7322 37.8136 45.2319L35.9258 52.0286H35.3208L33.4436 45.2319C33.3098 44.7604 33.2292 44.2942 33.2292 44.2942H33.2044C33.2044 44.2942 33.1823 44.7481 33.1353 45.2196L32.377 52.0286H31.7764L32.7925 43.8959H33.5853L35.404 50.444C35.5582 50.986 35.6166 51.3667 35.6166 51.3667H35.6414C35.6414 51.3667 35.6875 50.986 35.8408 50.444L37.6852 43.8959H38.478L39.5065 52.0286" fill="#949494"/>
<path d="M115.577 36.1714V47.7165C115.577 50.2608 113.335 52.1953 110.376 52.1953C107.416 52.1953 105.176 50.2608 105.176 47.7165V38.8849C105.176 37.3902 106.379 36.1714 107.881 36.1714H108.071V47.6962C108.071 49.0623 109.298 49.9039 110.483 49.9039C111.623 49.9039 112.849 49.1257 112.849 47.6962V38.736C112.849 37.3277 114.011 36.1714 115.428 36.1714" fill="#949494"/>
<path d="M121.283 40.2504C125.235 40.2504 125.869 42.4581 125.869 43.7836V52.0273H125.741C124.285 52.0273 123.036 50.8076 123.036 49.3561V43.8259C123.036 43.0477 122.72 42.1223 121.176 42.1223C120.458 42.1223 120.034 42.2069 119.57 42.3735V52.0273H116.736V41.1123C117.943 40.5871 119.887 40.2504 121.283 40.2504Z" fill="#949494"/>
<path d="M129.916 40.2504V49.3781C129.916 50.8288 128.733 52.0273 127.252 52.0273H127.126V40.2504H129.916ZM128.522 36.1709C129.367 36.1709 130.045 36.8019 130.045 37.5783C130.045 38.3371 129.367 38.9461 128.522 38.9461C127.676 38.9461 126.979 38.3371 126.979 37.5783C126.979 36.8019 127.676 36.1709 128.522 36.1709" fill="#949494"/>
<path d="M137.965 35.9396C139.299 35.9396 140.544 36.2331 141.582 36.8641V39.6402C140.946 38.8206 140.038 38.2521 138.579 38.2521C135.704 38.2521 133.928 41.0697 133.928 43.9939C133.928 46.7488 135.79 49.7559 138.579 49.7559C139.805 49.7559 140.925 49.3989 141.582 48.515V51.2488C140.755 51.8587 139.466 52.1953 137.945 52.1953C133.378 52.1953 130.969 48.0311 130.969 44.015C130.969 40.0615 133.378 35.9396 137.965 35.9396Z" fill="#949494"/>
<path d="M146.586 40.2504C147.052 40.2504 147.644 40.2927 148.173 40.3773V42.6273C147.199 41.9328 145.909 42.1637 145.339 42.4581V49.3781C145.339 50.8288 144.134 52.0273 142.675 52.0273H142.527V41.1547C143.626 40.6285 144.747 40.2504 146.586 40.2504Z" fill="#949494"/>
<path d="M155.528 44.6672C155.443 42.3317 153.987 42.0797 153.203 42.0797H153.097C151.511 42.122 150.773 43.2368 150.773 45.3185L155.528 44.6672ZM157.979 46.2641L150.941 47.2327C151.174 49.146 152.146 50.156 153.921 50.156C155.888 50.156 156.882 49.525 157.599 49.02V51.3537C156.882 51.7335 155.55 52.1953 153.646 52.1953C150.201 52.1953 148.15 49.8819 148.15 46.1804C148.15 42.5847 150.053 40.2509 153.182 40.2509C156.269 40.2509 157.979 42.2912 157.979 45.8226" fill="#949494"/>
<path d="M165.36 42.5212C165.064 42.4366 164.749 42.3952 164.389 42.3952C162.062 42.3952 161.578 44.624 161.578 46.4756C161.578 49.0623 162.443 50.3454 164.199 50.3454C164.494 50.3454 165.149 50.282 165.36 50.2406V42.5212ZM168.13 36.1714V51.8798C167.454 52.027 165.234 52.1953 164.304 52.1953H164.114C160.668 52.153 158.787 50.1771 158.787 46.6219C158.787 43.0262 160.752 40.7136 163.798 40.7136C164.389 40.7136 164.895 40.7762 165.339 40.882V38.8409C165.339 37.3691 166.523 36.1714 168.004 36.1714" fill="#949494"/>
<path d="M172.242 40.2504V49.3781C172.242 50.8288 171.057 52.0273 169.577 52.0273H169.449V40.2504H172.242ZM170.845 36.1709C171.691 36.1709 172.368 36.8019 172.368 37.5783C172.368 38.3371 171.691 38.9461 170.845 38.9461C170 38.9461 169.302 38.3371 169.302 37.5783C169.302 36.8019 170 36.1709 170.845 36.1709Z" fill="#949494"/>
<path d="M177.183 36.1714V40.2509H179V42.5009H177.183V48.7476C177.183 49.5038 177.436 49.7356 178.26 49.7356C178.473 49.7356 178.788 49.6712 179 49.5884V51.9221C178.874 51.9644 178.324 52.1953 177.584 52.1953C175.513 52.1953 174.372 51.1862 174.372 49.3566V42.5009H173.146V40.2509H174.372V38.8215C174.372 37.3691 175.554 36.1714 177.014 36.1714" fill="#949494"/>
<path d="M101.675 43.8282C101.675 48.8931 97.5463 53 92.4543 53C87.3623 53 83.2341 48.8931 83.2341 43.8282C83.2341 38.7625 87.3623 34.6556 92.4543 34.6556C97.5463 34.6556 101.675 38.7625 101.675 43.8282Z" fill="#949494"/>
<path d="M92.4543 34.6551C92.4198 34.6551 92.3852 34.6551 92.3507 34.656C92.3852 34.6551 92.4198 34.6551 92.4543 34.6551ZM92.3356 34.656C92.2966 34.656 92.2577 34.6568 92.2196 34.6577C92.2577 34.6568 92.2966 34.656 92.3356 34.656ZM92.2169 34.6577C92.2045 34.6586 92.1921 34.6586 92.1797 34.6595C92.1921 34.6586 92.2045 34.6586 92.2169 34.6577ZM92.1576 34.6595C92.1469 34.6604 92.1363 34.6603 92.1257 34.6603C92.1363 34.6603 92.1469 34.6604 92.1576 34.6595ZM92.0982 34.6621C92.0814 34.6621 92.0645 34.663 92.0477 34.6639C92.0645 34.663 92.0814 34.6621 92.0982 34.6621ZM92.0397 34.6639C91.8041 34.6745 91.5711 34.6939 91.3408 34.7212C91.5711 34.6939 91.8041 34.6745 92.0397 34.6639ZM85.9458 37.3307H85.9467C87.3667 35.9224 89.2457 34.9724 91.3408 34.7212C89.2457 34.9724 87.3667 35.9224 85.9458 37.3307V37.3307ZM84.159 39.8204C84.1572 39.8231 84.1554 39.8266 84.1546 39.8293C84.1492 39.8398 84.1439 39.8504 84.1386 39.8609C84.136 39.8671 84.1333 39.8733 84.1306 39.8786C84.1262 39.8874 84.1218 39.8962 84.1174 39.9051C84.1103 39.92 84.1032 39.935 84.0961 39.95C84.0952 39.9526 84.0943 39.9544 84.0934 39.957C84.0863 39.9711 84.0801 39.9852 84.0739 39.9984C84.0722 40.0011 84.0713 40.0038 84.0704 40.0064C83.9517 40.2629 83.8454 40.5246 83.7515 40.7925C83.98 40.143 84.2804 39.527 84.6436 38.9532V38.9524C84.4664 39.2317 84.3052 39.5217 84.159 39.8204V39.8204ZM83.7267 40.863C83.7347 40.8401 83.7426 40.8163 83.7506 40.7934C83.7426 40.8172 83.7347 40.8401 83.7267 40.863ZM83.6771 41.0111C83.6921 40.9644 83.7081 40.9177 83.724 40.8718C83.7081 40.9177 83.6921 40.9644 83.6771 41.0111ZM83.6531 41.0869C83.6594 41.0675 83.6656 41.0472 83.6718 41.0278C83.6656 41.0481 83.6594 41.0675 83.6531 41.0869ZM83.6292 41.1635C83.6363 41.1415 83.6425 41.1195 83.6496 41.0974C83.6425 41.1195 83.6363 41.1415 83.6292 41.1635ZM83.6168 41.2058C83.6159 41.2076 83.6159 41.2094 83.6151 41.2111C83.6133 41.2182 83.6106 41.2261 83.6089 41.2331C83.6133 41.2173 83.6177 41.2015 83.623 41.1856C83.6213 41.1918 83.6186 41.1988 83.6168 41.2058ZM83.6018 41.2552C83.6018 41.257 83.6018 41.2578 83.6009 41.2587C83.6018 41.2561 83.6027 41.2543 83.6035 41.2517C83.6027 41.2525 83.6027 41.2543 83.6018 41.2552ZM83.5973 41.2702C83.5956 41.2781 83.5929 41.2861 83.5911 41.294C83.5894 41.2993 83.5876 41.3046 83.5867 41.3099C83.5911 41.2931 83.5965 41.2754 83.6009 41.2587C83.6 41.2622 83.5991 41.2666 83.5973 41.2702V41.2702ZM83.5832 41.3195C83.5814 41.3266 83.5796 41.3345 83.577 41.3425C83.5761 41.346 83.5752 41.3486 83.5743 41.3521C83.5779 41.338 83.5823 41.324 83.5867 41.3099C83.5858 41.3125 83.5841 41.316 83.5832 41.3195V41.3195ZM83.569 41.3724C83.5708 41.3654 83.5725 41.3592 83.5743 41.3521C83.5725 41.3592 83.5708 41.3654 83.569 41.3724ZM83.5646 41.3874C83.5619 41.3962 83.5593 41.4059 83.5566 41.4147C83.5531 41.4297 83.5486 41.4447 83.5451 41.4597C83.5406 41.4738 83.538 41.487 83.5344 41.5002C83.53 41.5143 83.5265 41.5284 83.5229 41.5434C83.5203 41.554 83.5176 41.5646 83.5141 41.576C83.5114 41.5875 83.5088 41.5998 83.5052 41.6112C83.5026 41.6227 83.4999 41.6342 83.4972 41.6448C83.4928 41.6641 83.4875 41.6835 83.4831 41.7029C83.4804 41.7144 83.4777 41.7258 83.4751 41.7381C83.4724 41.7487 83.4698 41.7593 83.4671 41.7699C83.4645 41.7822 83.4618 41.7937 83.4591 41.806C83.4565 41.8192 83.4529 41.8324 83.4503 41.8457C83.4467 41.8633 83.4432 41.8801 83.4388 41.8977C83.437 41.9091 83.4343 41.9206 83.4317 41.9321C83.4299 41.9417 83.4273 41.9515 83.4255 41.9612C83.4485 41.8519 83.4733 41.7426 83.4999 41.6342C83.522 41.546 83.5442 41.4588 83.569 41.3724C83.5672 41.3768 83.5654 41.3821 83.5646 41.3874V41.3874ZM83.4237 41.9699C83.4219 41.9796 83.4193 41.9902 83.4175 41.9999C83.4157 42.0078 83.414 42.0166 83.4122 42.0246C83.4166 42.0061 83.4202 41.9876 83.4237 41.9682C83.4237 41.9691 83.4237 41.969 83.4237 41.9699ZM83.4069 42.0554C83.406 42.0599 83.4051 42.0642 83.4042 42.0686C83.406 42.0572 83.4087 42.0457 83.4104 42.0343C83.4095 42.0413 83.4078 42.0484 83.4069 42.0554ZM83.3989 42.0925C83.3989 42.0933 83.3989 42.0942 83.3989 42.0951C83.4007 42.0863 83.4024 42.0774 83.4042 42.0686C83.4024 42.0766 83.4007 42.0845 83.3989 42.0925V42.0925ZM83.3909 42.1357C83.39 42.1409 83.3892 42.1462 83.3883 42.1506C83.3874 42.155 83.3865 42.1594 83.3856 42.1638C83.3883 42.1533 83.39 42.1427 83.3918 42.1321C83.3918 42.1339 83.3918 42.1348 83.3909 42.1357V42.1357ZM83.3794 42.2008C83.3794 42.2008 83.3794 42.2008 83.3794 42.2017C83.3794 42.2008 83.3794 42.2 83.3794 42.2V42.2008ZM83.3776 42.207C83.3759 42.2194 83.3741 42.2317 83.3714 42.244C83.3741 42.2299 83.3768 42.2158 83.3794 42.2017C83.3785 42.2035 83.3785 42.2053 83.3776 42.207ZM83.3573 42.3295C83.359 42.3181 83.3608 42.3057 83.3626 42.2943C83.3608 42.3057 83.359 42.3181 83.3573 42.3295ZM83.3449 42.4027C83.3475 42.3894 83.3493 42.3771 83.3511 42.3639C83.3493 42.3771 83.3475 42.3903 83.3449 42.4027ZM83.3307 42.4961C83.3333 42.4811 83.3351 42.4661 83.3378 42.4511C83.3351 42.4661 83.3333 42.4811 83.3307 42.4961ZM83.3209 42.5692C83.3227 42.5551 83.3245 42.5419 83.3263 42.5278C83.3245 42.541 83.3227 42.5551 83.3209 42.5692ZM83.3085 42.6626C83.3112 42.6406 83.3139 42.6195 83.3165 42.5983C83.3139 42.6195 83.3112 42.6406 83.3085 42.6626ZM83.2997 42.734C83.3015 42.7199 83.3032 42.7058 83.305 42.6926C83.3032 42.7058 83.3015 42.7199 83.2997 42.734ZM83.2899 42.8186C83.2917 42.801 83.2935 42.7834 83.2961 42.7649C83.2935 42.7825 83.2917 42.801 83.2899 42.8186ZM83.2811 42.9015C83.2829 42.8847 83.2846 42.868 83.2864 42.8521C83.2846 42.8689 83.2829 42.8847 83.2811 42.9015ZM83.2731 42.9799C83.2749 42.964 83.2767 42.9473 83.2784 42.9314C83.2767 42.9473 83.2749 42.964 83.2731 42.9799ZM83.2651 43.0716C83.2669 43.0486 83.2696 43.0257 83.2713 43.0028C83.2696 43.0257 83.2669 43.0486 83.2651 43.0716ZM83.2598 43.1483C83.2607 43.1306 83.2625 43.113 83.2634 43.0954C83.2625 43.113 83.2607 43.1306 83.2598 43.1483ZM83.2536 43.232C83.2536 43.2346 83.2536 43.2364 83.2536 43.239C83.2545 43.2161 83.2563 43.1932 83.258 43.1703C83.2563 43.1905 83.2554 43.2117 83.2536 43.232V43.232ZM83.2527 43.2408C83.2527 43.2417 83.2527 43.2426 83.2527 43.2426C83.2527 43.2417 83.2536 43.2399 83.2536 43.239C83.2536 43.2399 83.2536 43.2408 83.2527 43.2408V43.2408ZM83.2501 43.2892C83.2501 43.2954 83.2492 43.3016 83.2492 43.3078C83.2492 43.3104 83.2492 43.3122 83.2492 43.3157C83.2501 43.2963 83.251 43.2769 83.2519 43.2575C83.2519 43.2681 83.251 43.2787 83.2501 43.2892V43.2892ZM83.2465 43.3509C83.2465 43.358 83.2465 43.3651 83.2456 43.3712C83.2456 43.3818 83.2448 43.3915 83.2448 43.402C83.2456 43.3809 83.2465 43.3606 83.2474 43.3395C83.2474 43.343 83.2474 43.3474 83.2465 43.3509V43.3509ZM83.2439 43.4126C83.243 43.4232 83.243 43.4338 83.243 43.4435C83.2421 43.4576 83.2412 43.4726 83.2412 43.4867C83.2421 43.462 83.243 43.4373 83.2439 43.4126ZM83.2403 43.5043C83.2403 43.5052 83.2403 43.5061 83.2403 43.5069C83.2403 43.5043 83.2403 43.5008 83.2403 43.4973C83.2403 43.4999 83.2403 43.5025 83.2403 43.5043V43.5043ZM83.2394 43.5387C83.2386 43.5475 83.2386 43.5563 83.2386 43.5651C83.2386 43.5457 83.2394 43.5263 83.2403 43.5069C83.2394 43.5175 83.2394 43.5281 83.2394 43.5387V43.5387ZM83.2377 43.5827C83.2377 43.5863 83.2377 43.5889 83.2377 43.5916C83.2377 43.5827 83.2377 43.5739 83.2386 43.5651C83.2386 43.5713 83.2377 43.5774 83.2377 43.5827ZM83.2377 43.603C83.2368 43.6127 83.2368 43.6224 83.2368 43.6312C83.2368 43.6356 83.2368 43.64 83.2368 43.6436C83.2368 43.6268 83.2368 43.6092 83.2377 43.5916C83.2377 43.5951 83.2377 43.5995 83.2377 43.603V43.603ZM83.2359 43.6567C83.2359 43.6612 83.2359 43.6665 83.2359 43.6718C83.2359 43.6621 83.2359 43.6533 83.2368 43.6436C83.2368 43.648 83.2359 43.6523 83.2359 43.6567ZM83.2359 43.6718C83.2359 43.6797 83.2359 43.6885 83.2359 43.6964C83.235 43.7061 83.235 43.7158 83.235 43.7255C83.235 43.707 83.2359 43.6894 83.2359 43.6718ZM83.235 43.7325C83.235 43.7352 83.235 43.7379 83.235 43.7405C83.235 43.7352 83.235 43.7299 83.235 43.7255C83.235 43.7281 83.235 43.7299 83.235 43.7325ZM83.235 43.7625C83.235 43.7845 83.2341 43.8066 83.2341 43.8277C83.2341 43.8031 83.235 43.7784 83.235 43.7537C83.235 43.7573 83.235 43.759 83.235 43.7625ZM83.2341 43.8277C83.2341 43.8533 83.235 43.8779 83.235 43.9026C83.235 43.8779 83.2341 43.8533 83.2341 43.8277ZM83.235 43.9238C83.235 43.9441 83.2359 43.9643 83.2359 43.9846C83.2359 43.9643 83.235 43.9441 83.235 43.9238ZM83.2359 43.9996C83.2368 44.0243 83.2368 44.0489 83.2377 44.0736C83.2368 44.0489 83.2368 44.0243 83.2359 43.9996ZM83.2386 44.0913C83.2386 44.1115 83.2394 44.1318 83.2403 44.1521C83.2394 44.1318 83.2386 44.1115 83.2386 44.0913ZM83.2412 44.1697C83.2421 44.1944 83.243 44.219 83.2439 44.2437C83.243 44.219 83.2421 44.1944 83.2412 44.1697ZM83.2439 44.2525C83.2456 44.2746 83.2465 44.2957 83.2474 44.3169C83.2465 44.2957 83.2456 44.2746 83.2439 44.2525C83.2439 44.2525 83.2448 44.2534 83.2439 44.2525ZM83.2483 44.3398C83.2501 44.3601 83.251 44.3803 83.2519 44.4006C83.251 44.3803 83.2501 44.3601 83.2483 44.3398ZM83.2527 44.4147C83.2545 44.4385 83.2563 44.4623 83.258 44.487C83.2563 44.4623 83.2545 44.4385 83.2527 44.4147ZM83.2598 44.5064C83.2607 44.5249 83.2625 44.5434 83.2634 44.5619V44.5627C83.2625 44.5434 83.2607 44.5249 83.2598 44.5064ZM83.2651 44.583C83.2669 44.6068 83.2696 44.6306 83.2713 44.6535C83.2696 44.6306 83.2669 44.6068 83.2651 44.583ZM83.2731 44.6729C83.2749 44.6905 83.2767 44.7082 83.2784 44.7258C83.2767 44.7082 83.2749 44.6905 83.2731 44.6729ZM83.2811 44.7531C83.2829 44.7716 83.2846 44.7901 83.2864 44.8086V44.8095C83.2846 44.7901 83.2829 44.7716 83.2811 44.7531ZM83.2891 44.8298C83.2908 44.8509 83.2935 44.8712 83.2961 44.8924C83.2935 44.8712 83.2908 44.8501 83.2891 44.8289V44.8298ZM83.2988 44.9188C83.3015 44.9355 83.3032 44.9514 83.305 44.9672C83.3032 44.9514 83.3015 44.9346 83.2988 44.9188ZM83.3085 44.9919C83.3112 45.014 83.3139 45.0369 83.3165 45.0589C83.3139 45.0369 83.3112 45.014 83.3085 44.9919ZM83.3201 45.0836C83.3227 45.0995 83.3245 45.1153 83.3272 45.1312C83.3245 45.1153 83.3227 45.0986 83.3201 45.0827C83.3201 45.0827 83.3201 45.0827 83.3201 45.0836ZM83.3307 45.1576C83.3333 45.1761 83.336 45.1938 83.3387 45.2123C83.3387 45.2131 83.3387 45.2132 83.3396 45.214C83.336 45.1947 83.3333 45.1761 83.3307 45.1568V45.1576V45.1576ZM83.344 45.2475C83.3466 45.2634 83.3493 45.2783 83.352 45.2933C83.352 45.2942 83.352 45.2942 83.352 45.2942C83.3493 45.2784 83.3466 45.2625 83.344 45.2466V45.2475ZM83.3564 45.3242C83.359 45.3383 83.3608 45.3515 83.3635 45.3656C83.3635 45.3656 83.3635 45.3665 83.3635 45.3674C83.3617 45.3524 83.359 45.3383 83.3564 45.3233C83.3564 45.3242 83.3564 45.3242 83.3564 45.3242ZM83.3688 45.3947C83.3723 45.415 83.3759 45.4361 83.3794 45.4564V45.4573C83.3759 45.4361 83.3723 45.415 83.3688 45.3947ZM83.3856 45.489C83.3874 45.5014 83.39 45.5137 83.3918 45.526C83.3927 45.526 83.3927 45.5269 83.3927 45.5269C83.39 45.5137 83.3874 45.5005 83.3847 45.4872C83.3856 45.4881 83.3856 45.489 83.3856 45.489V45.489ZM83.3989 45.5595C83.4016 45.5762 83.4051 45.593 83.4087 45.6097C83.4095 45.6133 83.4095 45.6168 83.4104 45.6203C83.4069 45.6001 83.4025 45.5798 83.3989 45.5586C83.3989 45.5595 83.3989 45.5595 83.3989 45.5595V45.5595ZM83.4175 45.6538C83.4193 45.6644 83.4219 45.6759 83.4237 45.6864C83.4237 45.6873 83.4246 45.6882 83.4246 45.6882C83.4219 45.6758 83.4193 45.6626 83.4166 45.6503C83.4166 45.6512 83.4166 45.6529 83.4175 45.6538V45.6538ZM83.4317 45.7234C83.4343 45.7358 83.437 45.7472 83.4397 45.7596C83.4397 45.7622 83.4405 45.7631 83.4405 45.7649C83.4379 45.7508 83.4343 45.7358 83.4317 45.7217C83.4317 45.7217 83.4317 45.7226 83.4317 45.7234ZM83.4503 45.8081C83.4529 45.8222 83.4565 45.8362 83.4591 45.8503C83.4591 45.8503 83.46 45.8512 83.46 45.8521C83.4556 45.8336 83.4521 45.8159 83.4476 45.7983C83.4485 45.8018 83.4494 45.8045 83.4503 45.8081V45.8081ZM83.468 45.8856C83.4698 45.8961 83.4724 45.9067 83.4751 45.9164C83.4751 45.9182 83.4751 45.92 83.476 45.9209C83.4724 45.9085 83.4698 45.8953 83.4671 45.8829C83.4671 45.8838 83.4671 45.8847 83.468 45.8856ZM83.4831 45.9526C83.4875 45.9702 83.491 45.9869 83.4955 46.0037C83.4964 46.0063 83.4972 46.009 83.4972 46.0116C83.4928 45.9913 83.4875 45.9711 83.4831 45.9508C83.4831 45.9517 83.4831 45.9526 83.4831 45.9526V45.9526ZM83.5061 46.0469C83.5088 46.0566 83.5114 46.0671 83.5141 46.0777C83.5141 46.0786 83.515 46.0804 83.515 46.0821C83.5114 46.068 83.5079 46.0548 83.5043 46.0407C83.5052 46.0425 83.5061 46.0451 83.5061 46.0469V46.0469ZM83.5229 46.1147C83.5256 46.1244 83.5282 46.135 83.5309 46.1447C83.5327 46.15 83.5336 46.1553 83.5353 46.1597C83.5309 46.1438 83.5265 46.1271 83.522 46.1112C83.5229 46.1121 83.5229 46.113 83.5229 46.1147V46.1147ZM83.5477 46.2055C83.5504 46.2161 83.553 46.2267 83.5557 46.2372C83.5566 46.2381 83.5566 46.2399 83.5575 46.2417C83.5531 46.2249 83.5486 46.209 83.5442 46.1923C83.5451 46.1967 83.546 46.2011 83.5477 46.2055V46.2055ZM83.5654 46.2725C83.569 46.2831 83.5717 46.2936 83.5743 46.3042C83.5752 46.3077 83.5761 46.3104 83.577 46.3139C83.5725 46.2989 83.569 46.2831 83.5646 46.2672C83.5646 46.269 83.5654 46.2707 83.5654 46.2725V46.2725ZM83.5894 46.3562C83.5929 46.3695 83.5965 46.3827 83.6009 46.3959C83.6009 46.3976 83.6018 46.3985 83.6018 46.4003C83.5956 46.3791 83.5894 46.358 83.5832 46.336C83.5858 46.343 83.5876 46.3492 83.5894 46.3562V46.3562ZM83.6115 46.432C83.6142 46.4417 83.6168 46.4514 83.6204 46.4602C83.6213 46.4637 83.6213 46.4664 83.623 46.469C83.6177 46.4532 83.6133 46.4382 83.6089 46.4223C83.6097 46.4249 83.6106 46.4285 83.6115 46.432ZM83.631 46.4981C83.6337 46.5069 83.6363 46.5157 83.639 46.5236C83.6425 46.5342 83.6461 46.5457 83.6496 46.5563C83.6425 46.5351 83.6363 46.514 83.6292 46.4928C83.6301 46.4946 83.631 46.4963 83.631 46.4981ZM83.6602 46.5907C83.6629 46.5995 83.6656 46.6083 83.6691 46.6171C83.67 46.6197 83.6709 46.6232 83.6718 46.6259C83.6656 46.6083 83.6602 46.5898 83.654 46.5722C83.6567 46.5783 83.6585 46.5845 83.6602 46.5907V46.5907ZM83.6806 46.655C83.6842 46.6647 83.6868 46.6735 83.6895 46.6823C83.6921 46.6911 83.6957 46.6991 83.6983 46.7079C83.6912 46.6876 83.685 46.6664 83.678 46.6462C83.6788 46.6497 83.6797 46.6523 83.6806 46.655V46.655ZM83.7107 46.7457C83.7143 46.7545 83.7169 46.7634 83.7196 46.7722C83.7214 46.7757 83.7222 46.7784 83.7231 46.781C83.7152 46.7581 83.7072 46.7361 83.7001 46.7131C83.7036 46.7237 83.7072 46.7352 83.7107 46.7457V46.7457ZM83.7329 46.8101C83.7364 46.8198 83.7391 46.8286 83.7426 46.8383C83.7444 46.8445 83.7471 46.8497 83.7488 46.8559C83.7417 46.8365 83.7347 46.8163 83.7285 46.7969C83.7302 46.8013 83.7311 46.8057 83.7329 46.8101ZM83.755 46.8744C83.7595 46.8867 83.7639 46.8982 83.7683 46.9097C83.771 46.9185 83.7745 46.9273 83.7781 46.937C83.7692 46.9132 83.7603 46.8894 83.7524 46.8656C83.7533 46.8682 83.7541 46.8718 83.755 46.8744V46.8744ZM83.7878 46.9643C83.7913 46.974 83.7949 46.9828 83.7975 46.9916C83.8002 46.9978 83.802 47.0031 83.8038 47.0093C83.7958 46.9855 83.7869 46.9616 83.7781 46.9387C83.7816 46.9467 83.7843 46.9564 83.7878 46.9643V46.9643ZM83.8108 47.0269C83.8153 47.0375 83.8188 47.0489 83.8232 47.0595C83.8303 47.0771 83.8365 47.0947 83.8436 47.1124C83.848 47.1238 83.8516 47.1344 83.856 47.1459C83.8604 47.1573 83.8649 47.1688 83.8693 47.1793C83.8737 47.189 83.8773 47.1987 83.8808 47.2084C83.8853 47.2199 83.8897 47.2314 83.895 47.2428C83.9021 47.2613 83.9092 47.279 83.9171 47.2975C83.9216 47.3072 83.9251 47.3177 83.9295 47.3283C83.934 47.3389 83.9384 47.3494 83.9428 47.3609C83.9481 47.3715 83.9526 47.382 83.957 47.3935C83.9623 47.4067 83.9685 47.42 83.9738 47.4332C83.98 47.4464 83.9854 47.4596 83.9916 47.4728C83.9969 47.486 84.0022 47.4984 84.0084 47.5116C84.0119 47.5204 84.0164 47.5292 84.0199 47.5389C84.027 47.553 84.0332 47.5671 84.0394 47.5812C84.0421 47.5883 84.0456 47.5953 84.0483 47.6015C84.0571 47.6218 84.0669 47.6412 84.0757 47.6606C84.0793 47.6685 84.0828 47.6755 84.0863 47.6835C84.0925 47.6976 84.0996 47.7116 84.1067 47.7257C84.1094 47.7328 84.1129 47.7407 84.1165 47.7469C84.1253 47.7672 84.1351 47.7866 84.1448 47.8069C84.1475 47.813 84.151 47.8183 84.1537 47.8245C84.1616 47.8403 84.1687 47.8562 84.1767 47.8721C84.1802 47.8782 84.1829 47.8844 84.1865 47.8906C84.1962 47.91 84.2059 47.9302 84.2157 47.9496C84.2166 47.9505 84.2166 47.9514 84.2175 47.9531C84.2281 47.9734 84.2387 47.9946 84.2493 48.0157C84.252 48.021 84.2547 48.0263 84.2573 48.0316C84.2671 48.0492 84.2768 48.0677 84.2857 48.0853C84.2874 48.0889 84.2892 48.0915 84.291 48.095C84.3025 48.1162 84.314 48.1382 84.3255 48.1603C84.3264 48.1612 84.3273 48.1629 84.3282 48.1646C84.3388 48.1849 84.3503 48.2043 84.361 48.2246C84.3627 48.2272 84.3645 48.2308 84.3663 48.2343C84.3902 48.2775 84.415 48.3206 84.4389 48.3638C84.4407 48.3665 84.4416 48.3682 84.4434 48.3709C84.5071 48.4828 84.5745 48.5938 84.6436 48.7031V48.7023C84.3087 48.1735 84.027 47.6085 83.8064 47.0137C83.8073 47.0181 83.8091 47.0225 83.8108 47.0269" fill="#949494"/>
<path d="M97.6562 36.2538C97.3045 36.0141 96.936 35.7982 96.5515 35.6087C96.936 35.7982 97.3045 36.0141 97.6562 36.2538ZM98.6546 37.0391C98.341 36.7553 98.007 36.4927 97.6562 36.2538C98.007 36.4927 98.341 36.7553 98.6546 37.0391Z" fill="#949494"/>
<path d="M91.8696 41.2805C91.8696 41.2805 92.9345 39.9091 93.0363 39.7408C93.1382 39.5725 93.1781 39.4376 92.8902 39.2579C92.5996 39.0789 91.6367 38.5167 91.4427 38.3704C91.2522 38.2241 91.2859 37.6847 91.8502 37.5728C92.4153 37.4609 97.3169 37.0555 99.2251 37.2582C101.133 37.4609 100.875 37.9993 100.886 38.4374C100.897 38.8762 100.118 39.5055 99.0789 40.4379C99.0789 40.4379 97.3621 42.0216 96.1086 43.1109C94.855 44.202 90.8456 47.5607 90.066 48.1679C89.2873 48.7742 86.2656 51.011 86.0689 51.1582C85.8732 51.3036 85.3239 51.7433 85.0263 51.4366C84.7268 51.1308 85.0263 50.7889 85.1777 50.5809C85.3292 50.3729 91.4178 41.8198 91.8696 41.2805Z" fill="#F6F6F6"/>
<path d="M91.6729 38.9717C91.8643 39.118 92.8299 39.6794 93.1187 39.8601L93.2161 39.9297L93.2649 39.8583C93.3667 39.69 93.4075 39.5551 93.1187 39.3745C92.8299 39.1956 91.8643 38.6333 91.6729 38.4879L91.3567 38.2341C91.4772 38.5628 91.5569 38.8836 91.6729 38.9717Z" fill="#949494"/>
<path d="M100.886 38.4377C100.775 38.8616 100.118 39.505 99.0788 40.4383C99.0788 40.4383 97.362 42.022 96.1094 43.1113C94.855 44.2024 90.8455 47.561 90.0668 48.1674C89.2872 48.7746 86.2655 51.0113 86.0697 51.1576C85.92 51.2687 85.2547 51.3647 84.9624 51.3568C85.0563 51.4916 85.2255 51.6406 85.4 51.808C85.7065 52.105 86.2469 51.6741 86.4418 51.5296C86.6394 51.3815 89.6602 49.1456 90.4398 48.5384C91.2184 47.932 95.227 44.5734 96.4814 43.4832C97.7358 42.393 99.4509 40.8084 99.4509 40.8084C100.491 39.876 101.059 39.3692 101.169 38.9445C101.22 38.7488 101.288 38.1363 100.769 37.7785C100.847 37.9662 100.917 38.3205 100.886 38.4377Z" fill="#949494"/>
<path d="M91.8696 41.2805C91.8696 41.2805 92.9345 39.9091 93.0363 39.7408C93.1382 39.5725 93.1781 39.4376 92.8902 39.2579C92.5996 39.0789 91.6367 38.5167 91.4427 38.3704C91.2522 38.2241 91.2859 37.6847 91.8502 37.5728C92.4153 37.4609 97.3169 37.0555 99.2251 37.2582C101.133 37.4609 100.961 38.1465 100.886 38.4374C100.775 38.8621 100.118 39.5055 99.0789 40.4379C99.0789 40.4379 97.3621 42.0216 96.1086 43.1109C94.855 44.202 90.8456 47.5607 90.066 48.1679C89.2873 48.7742 86.2656 51.011 86.0689 51.1582C85.8732 51.3036 85.3239 51.7433 85.0263 51.4366C84.7268 51.1308 85.0263 50.7889 85.1777 50.5809C85.3292 50.3729 91.4178 41.8198 91.8696 41.2805Z" fill="#F6F6F6"/>
<path d="M37.2572 14.2454L35.9018 14.2754V22.8541H38.6737C41.5067 22.8541 43.5389 21.7815 43.5389 18.8106C43.5389 15.6229 41.753 14.1229 37.2572 14.2454ZM42.8922 8.21024C42.8922 5.66679 41.4146 4.47174 38.5506 4.47174C37.5035 4.47174 36.7026 4.59424 35.9018 4.84012V12.1312L37.2572 12.162C41.4757 12.2845 42.8922 10.9978 42.8922 8.21024ZM42.677 13.0504V13.142C44.8943 13.5712 47.9426 15.5004 47.9426 18.8714C47.9426 23.4666 44.2476 25.4883 38.8278 25.4883C33.6543 25.4883 31.7754 25.3966 31.7754 25.3966V3.33838C33.2229 2.60336 35.6564 2.05167 38.5506 2.05167C44.2778 2.05167 47.1427 4.53343 47.1427 7.9344C47.1427 11.0895 44.7092 12.6212 42.677 13.0504" fill="#949494"/>
<path d="M58.3676 16.5741C54.7639 16.9107 52.5776 17.6457 52.5776 20.495C52.5776 22.6084 53.8718 23.5593 56.0883 23.5593C56.9502 23.5593 57.9663 23.4976 58.3676 23.406V16.5741ZM58.3676 14.674V13.5406C58.3676 11.3647 57.0122 10.7821 55.0412 10.7821C53.4094 10.7821 51.7767 11.3955 49.9598 12.3456V9.61967C51.0379 9.09793 53.071 8.33207 55.7189 8.33207C59.1986 8.33207 62.0936 10.0779 62.0936 14.3682V25.2743C60.9544 25.4885 58.3065 25.7344 56.704 25.7344H55.842C51.2851 25.7344 48.9136 23.8343 48.9136 20.6175C48.9136 16.2057 53.2242 15.1631 58.3676 14.674" fill="#949494"/>
<path d="M70.4583 8.33098C76.2174 8.33098 77.1413 11.5486 77.1413 13.4778V25.4883H76.9571C74.8327 25.4883 73.014 23.7116 73.014 21.5973V13.5395C73.014 12.4061 72.5525 11.0577 70.3041 11.0577C69.2579 11.0577 68.6422 11.1811 67.9637 11.4253V25.4883H63.8381V9.58685C65.5922 8.82099 68.4261 8.33098 70.4583 8.33098Z" fill="#949494"/>
<path d="M82.8657 21.5057C82.8657 23.7116 81.1409 25.4883 78.8306 25.4883H78.7996V6.37095C78.7996 4.16504 80.5244 2.38833 82.8347 2.38833H82.8657V16.2971L87.9763 8.76106H91.8272L86.5607 16.4205L92.7211 25.4883H88.4087L82.8657 17.0013" fill="#949494"/>
<path d="M105.284 13.7854H109.442L107.378 7.32101L105.284 13.7854ZM101.835 25.4883H97.8318C97.8318 25.4883 103.652 7.50432 104.515 4.96086C105.376 2.41829 107.871 2.38745 107.871 2.38745H109.563L117.201 25.4883H115.785C113.939 25.4883 112.366 24.2633 111.842 22.5474L109.965 16.2046H104.668" fill="#949494"/>
<path d="M130.123 8.32905V25.2713C128.615 25.4546 126.059 25.7305 124.55 25.7305H123.532C119.161 25.7305 116.913 23.7704 116.913 19.9403V12.2817C116.913 10.0758 118.636 8.32905 120.885 8.32905H121.07V20.1553C121.07 21.8095 122.024 22.7279 123.657 22.7279C124.457 22.7279 125.196 22.667 125.966 22.5745V12.2817C125.966 10.0758 127.691 8.32905 129.908 8.32905" fill="#949494"/>
<path d="M141.865 20.6175C141.865 23.3134 139.493 25.7344 135.86 25.7344C133.92 25.7344 132.257 25.1827 131.271 24.5393V21.1066C132.441 22.4859 134.013 22.9151 135.368 22.9151C136.907 22.9151 137.924 22.0276 137.924 20.6783C137.924 19.27 137.185 18.6275 135.49 17.9524C132.35 16.7574 131.611 14.919 131.611 13.2039C131.611 10.5688 133.798 8.33207 136.969 8.33207C138.848 8.33207 139.863 8.82296 140.941 9.49628V12.5914C139.863 11.3038 138.909 10.9363 137.739 10.9363C136.199 10.9363 135.336 11.8555 135.336 13.0198C135.336 14.3682 136.352 15.0714 137.832 15.654C141.034 16.9724 141.865 18.6883 141.865 20.6175Z" fill="#949494"/>
<path d="M147.563 2.38853V8.33207H150.212V11.6105H147.563V20.71C147.563 21.8126 147.933 22.1501 149.134 22.1501C149.441 22.1501 149.902 22.0576 150.212 21.9351V25.336C150.026 25.3968 149.226 25.7344 148.148 25.7344C145.13 25.7344 143.467 24.2644 143.467 21.5984V11.6105H141.681V8.33207H143.467V6.24866C143.467 4.13529 145.191 2.38853 147.317 2.38853" fill="#949494"/>
<path d="M157.242 8.33098C157.92 8.33098 158.782 8.39267 159.553 8.51518V11.7936C158.136 10.7819 156.256 11.1194 155.425 11.5486V21.6273C155.425 23.7415 153.669 25.4883 151.544 25.4883H151.33V9.64854C152.93 8.88268 154.563 8.33098 157.242 8.33098Z" fill="#949494"/>
<path d="M164.652 8.33098V21.6273C164.652 23.7415 162.927 25.4883 160.772 25.4883H160.587V8.33098H164.652ZM162.62 2.38745C163.851 2.38745 164.838 3.30753 164.838 4.44001C164.838 5.54253 163.851 6.43177 162.62 6.43177C161.389 6.43177 160.371 5.54253 160.371 4.44001C160.371 3.30753 161.389 2.38745 162.62 2.38745Z" fill="#949494"/>
<path d="M175.274 16.5741C171.67 16.9107 169.485 17.6457 169.485 20.495C169.485 22.6084 170.777 23.5593 172.995 23.5593C173.857 23.5593 174.873 23.4976 175.274 23.406V16.5741ZM175.274 14.674V13.5406C175.274 11.3647 173.919 10.7821 171.948 10.7821C170.317 10.7821 168.684 11.3955 166.866 12.3456V9.61967C167.944 9.09793 169.977 8.33207 172.625 8.33207C176.104 8.33207 179 10.0779 179 14.3682V25.2743C177.862 25.4885 175.212 25.7344 173.611 25.7344H172.748C168.191 25.7344 165.821 23.8343 165.821 20.6175C165.821 16.2057 170.131 15.1631 175.274 14.674" fill="#949494"/>
<path d="M26.9935 13.4287C26.9935 20.8432 20.951 26.8555 13.4963 26.8555C6.04344 26.8555 0 20.8432 0 13.4287C0 6.01254 6.04344 0.00114121 13.4963 0.00114121C20.951 0.00114121 26.9935 6.01254 26.9935 13.4287Z" fill="#949494"/>
<path d="M4.0706 3.81765C4.03782 3.85026 4.00415 3.88289 3.97138 3.9155C4.00415 3.88289 4.03782 3.85026 4.0706 3.81765ZM0.114278 11.671C0.114278 11.6736 0.114278 11.6763 0.113392 11.679C0.106305 11.7345 0.0992176 11.7891 0.0930165 11.8446C0.0921306 11.849 0.0921299 11.8535 0.091244 11.8579C0.0894723 11.8755 0.0877018 11.8922 0.08593 11.909C0.0850441 11.9143 0.0841576 11.9195 0.0841576 11.9248C0.0806141 11.9557 0.0770713 11.9874 0.0735278 12.0183C0.0726419 12.0244 0.0726412 12.0297 0.0717554 12.0359C0.0699836 12.0508 0.0690985 12.0658 0.0673267 12.0799C0.0664408 12.0896 0.0655547 12.0993 0.0646689 12.109C0.0628971 12.1231 0.0620103 12.1381 0.0602385 12.1522C0.0584668 12.1725 0.0566963 12.1927 0.0549245 12.213C0.0531528 12.2253 0.0522655 12.2377 0.0513796 12.25C0.0504937 12.2632 0.0496081 12.2756 0.0478363 12.2879C0.0469505 12.3003 0.0460644 12.3126 0.0451785 12.3241C0.0434067 12.3399 0.0425211 12.3558 0.0416352 12.3708C0.0398635 12.3875 0.0389784 12.4043 0.0372066 12.421C0.0363207 12.4351 0.0354346 12.4483 0.0345487 12.4624C0.0336629 12.4748 0.0327768 12.4871 0.0318909 12.4994C0.031005 12.5126 0.0301189 12.5276 0.029233 12.5408C0.0283472 12.5514 0.0274623 12.562 0.0274623 12.5726C0.0256905 12.5946 0.0239178 12.6184 0.0230319 12.6405C0.0221461 12.6502 0.022147 12.6607 0.0212612 12.6713C0.0203753 12.6872 0.0194892 12.703 0.0186033 12.7189C0.0186033 12.7277 0.0177179 12.7374 0.0177179 12.7462C0.0159462 12.77 0.0150589 12.7938 0.014173 12.8185C0.0132871 12.8246 0.0132876 12.8308 0.0132876 12.837C0.0124017 12.8564 0.0115156 12.8758 0.0106297 12.896C0.0106297 12.904 0.00974435 12.9119 0.00974435 12.9207C0.00885847 12.9419 0.00797236 12.9639 0.00708649 12.9859C0.00708649 12.9894 0.00708649 12.993 0.00708649 12.9965C0.00620061 13.0221 0.00531451 13.0476 0.00442863 13.0732C0.00442863 13.0793 0.00442863 13.0864 0.00442863 13.0926C0.00354276 13.1137 0.00354373 13.134 0.00265786 13.1542C0.00265786 13.1613 0.00265786 13.1675 0.00265786 13.1736C0.00177198 13.1983 0.00177078 13.2247 0.00177078 13.2503C0.000884902 13.2547 0.000885389 13.26 0.000885389 13.2644C0.000885389 13.2855 0.000885389 13.3076 0.000885389 13.3288C0.000885389 13.3358 0.000885875 13.3429 0 13.3499C0 13.3755 0 13.4019 0 13.4275C0 13.453 0 13.4794 0 13.505C0.000885875 13.512 0.000885389 13.5191 0.000885389 13.5262C0.000885389 13.5482 0.000885389 13.5693 0.000885389 13.5914C0.000885389 13.5958 0.000884902 13.6002 0.00177078 13.6046C0.00177078 13.6302 0.00177198 13.6557 0.00265786 13.6821C0.00265786 13.6874 0.00265786 13.6936 0.00265786 13.6998C0.00354373 13.7209 0.00354276 13.7421 0.00442863 13.7632C0.00442863 13.7694 0.00442863 13.7747 0.00442863 13.7809C0.00531451 13.8073 0.00620061 13.8329 0.00708649 13.8593C0.00708649 13.8611 0.00708649 13.8637 0.00708649 13.8664C0.00797236 13.8893 0.00885847 13.9122 0.00974435 13.936C0.00974435 13.943 0.0106297 13.9501 0.0106297 13.9571C0.0115156 13.9791 0.0124017 14.0003 0.0132876 14.0224C0.0132876 14.0268 0.0132871 14.0311 0.014173 14.0355C0.0150589 14.0611 0.0159462 14.0858 0.0177179 14.1114C0.0177179 14.1184 0.0177174 14.1245 0.0186033 14.1316C0.0194892 14.1501 0.0203753 14.1695 0.0212612 14.1889C0.022147 14.1968 0.0221461 14.2039 0.0230319 14.2118C0.0239178 14.2365 0.0256905 14.2612 0.0274623 14.285C0.0274623 14.292 0.0283476 14.2982 0.0283476 14.3052C0.0301194 14.3237 0.031005 14.3422 0.0318909 14.3607C0.0327768 14.3696 0.0336629 14.3793 0.0345487 14.3881C0.0354346 14.4092 0.0372056 14.4304 0.0389774 14.4515C0.0389774 14.4551 0.0389786 14.4586 0.0398645 14.4621C0.0416362 14.4868 0.0434067 14.5115 0.0451785 14.5362C0.0460644 14.5441 0.0469505 14.5511 0.0478363 14.5591C0.0487222 14.5785 0.0504949 14.597 0.0522667 14.6172C0.0531525 14.6234 0.0531516 14.6295 0.0540374 14.6366C0.0566951 14.6604 0.058468 14.6851 0.0611256 14.7089C0.0620115 14.7168 0.0620105 14.7239 0.0628964 14.7318C0.0646681 14.7494 0.0664404 14.7679 0.0682121 14.7855C0.069098 14.7943 0.0699841 14.8023 0.07087 14.8111C0.0735276 14.8314 0.0752993 14.8516 0.0770711 14.8728C0.0788428 14.8825 0.0797284 14.8922 0.0806143 14.9019C0.0823861 14.9204 0.0850437 14.938 0.0868154 14.9556C0.0877013 14.9653 0.0885869 14.975 0.0903587 14.9847C0.0921304 15.0006 0.0939026 15.0173 0.0956744 15.0332C0.0965602 15.042 0.0974459 15.0508 0.0992176 15.0605C0.101875 15.0825 0.104534 15.1046 0.107191 15.1275C0.108963 15.1372 0.109849 15.1469 0.110734 15.1566C0.113392 15.1716 0.115164 15.1866 0.116936 15.2016C0.118707 15.2121 0.119592 15.2227 0.121364 15.2341C0.124022 15.2535 0.12668 15.2738 0.129338 15.2941C0.131109 15.3064 0.132881 15.3196 0.135539 15.3329C0.136425 15.3443 0.138196 15.3566 0.139967 15.3681C0.141739 15.3813 0.144397 15.3937 0.146169 15.4069C0.14794 15.4201 0.149712 15.4342 0.15237 15.4474C0.154141 15.4615 0.156799 15.4765 0.158571 15.4906C0.161228 15.5082 0.163887 15.525 0.166544 15.5417C0.168316 15.5541 0.170088 15.5655 0.172745 15.5778C0.174517 15.5893 0.176289 15.6016 0.178061 15.6131C0.179833 15.6254 0.18249 15.6378 0.184262 15.6501C0.18692 15.6677 0.190464 15.6862 0.193121 15.7039C0.195779 15.7188 0.198435 15.7347 0.201093 15.7497C0.202865 15.7603 0.205522 15.7709 0.207294 15.7823C0.209952 15.7956 0.211723 15.8096 0.214381 15.8228C0.216152 15.8308 0.217039 15.8396 0.218811 15.8475C0.224126 15.874 0.228556 15.8995 0.233871 15.926C0.234757 15.9339 0.236528 15.9418 0.2383 15.9498C0.240957 15.9648 0.243616 15.9788 0.246273 15.9929C0.248045 16.0017 0.249817 16.0105 0.251589 16.0185C0.256904 16.0467 0.262219 16.0749 0.26842 16.104C0.269306 16.1093 0.270191 16.1146 0.271963 16.1199C0.274621 16.1349 0.278164 16.1489 0.280822 16.1639C0.282594 16.171 0.284365 16.1789 0.285251 16.1868C0.288794 16.2027 0.292339 16.2186 0.295882 16.2344C0.295882 16.2353 0.295882 16.2353 0.295882 16.2362C0.303855 16.2714 0.310941 16.3076 0.318914 16.3428C0.3198 16.3464 0.320686 16.3498 0.321572 16.3534C0.325115 16.3701 0.329545 16.3869 0.333089 16.4036C0.333975 16.408 0.334861 16.4125 0.335747 16.416C0.348149 16.4697 0.360551 16.5226 0.372953 16.5755C0.373839 16.579 0.374725 16.5817 0.375611 16.5843C0.721988 18.0138 1.29781 19.3533 2.06232 20.5625V20.5616C0.756537 18.495 0.000885389 16.0494 0.000885389 13.4275C0.000885389 10.8056 0.756537 8.35995 2.06232 6.2924C1.05242 7.88933 0.372067 9.71449 0.114278 11.671" fill="#949494"/>
<path d="M13.4202 0.00132899C13.414 0.00132899 13.4087 0.00132899 13.4025 0.00132899C13.3777 0.00132899 13.3529 0.00218964 13.3272 0.00218964C13.3228 0.00218964 13.3183 0.00218964 13.3139 0.00218964C13.2909 0.00307095 13.2678 0.00308343 13.2448 0.00396474C13.2404 0.00396474 13.2359 0.00396474 13.2324 0.00396474C13.2067 0.00396474 13.1819 0.00485852 13.1562 0.00573983C13.1509 0.00573983 13.1456 0.00573983 13.1403 0.00573983C13.088 0.00750245 13.0357 0.00924871 12.9835 0.0110113C12.979 0.0110113 12.9746 0.0110113 12.9702 0.0110113C12.9436 0.0127739 12.9188 0.0136802 12.8922 0.0145615C12.8896 0.0145615 12.886 0.0145615 12.8834 0.0145615C12.8586 0.0163241 12.8329 0.0171766 12.8081 0.0180579C12.8054 0.0189392 12.8027 0.0189724 12.801 0.0189724C12.7735 0.0198537 12.7469 0.0215668 12.7204 0.0233294C12.7177 0.0233294 12.715 0.0233294 12.7133 0.0233294C11.3659 0.100003 10.0716 0.374132 8.85883 0.815667C8.85794 0.815667 8.85706 0.816528 8.85617 0.816528C8.70291 0.87205 8.55143 0.930248 8.40083 0.99194C8.39817 0.992821 8.3964 0.993694 8.39374 0.994575C8.37071 1.00427 8.34856 1.01307 8.32642 1.02276C8.32199 1.02364 8.31844 1.02541 8.31402 1.02717C8.29275 1.03599 8.26972 1.04569 8.24846 1.0545C8.24403 1.05626 8.2396 1.05799 8.23518 1.06063C8.21303 1.06944 8.19088 1.07918 8.16873 1.08887C8.16785 1.08887 8.16785 1.08887 8.16696 1.08887C8.09432 1.1206 8.02168 1.15233 7.94904 1.18494C7.94638 1.18582 7.94461 1.18667 7.94195 1.18844C7.92157 1.19725 7.9012 1.20695 7.88082 1.21576C7.87462 1.21841 7.86754 1.22194 7.86133 1.22458C7.84273 1.2334 7.82324 1.24218 7.80464 1.251C7.79667 1.25452 7.78958 1.25807 7.78161 1.26159C7.763 1.27041 7.7444 1.27924 7.7258 1.28806C7.71871 1.2907 7.71162 1.29421 7.70365 1.29774C7.68504 1.30655 7.66644 1.31625 7.64695 1.32507C7.64341 1.32683 7.63986 1.32857 7.63632 1.33034C7.59557 1.34973 7.55393 1.36999 7.51318 1.39026C7.50787 1.3929 7.50256 1.39558 7.49813 1.39822C7.48129 1.40615 7.46535 1.41406 7.44852 1.422C7.43789 1.42728 7.42814 1.43258 7.4184 1.43786C7.40245 1.44492 7.38828 1.45285 7.37322 1.46078C7.36081 1.46607 7.3493 1.4722 7.33689 1.47837C7.32272 1.48542 7.30855 1.49337 7.29526 1.50042C7.28197 1.50659 7.26957 1.51367 7.25717 1.51984C7.24388 1.52689 7.22971 1.53393 7.21642 1.54098C7.20136 1.54891 7.18718 1.55683 7.17212 1.56476C7.16149 1.57005 7.14997 1.5762 7.13934 1.58149C7.11365 1.59559 7.08797 1.60969 7.06227 1.62291C7.05607 1.62643 7.04987 1.62998 7.04367 1.6335C7.0233 1.64408 7.00292 1.65552 6.98255 1.6661C6.97457 1.67139 6.96483 1.67582 6.95686 1.68111C6.93914 1.6908 6.92142 1.70046 6.9037 1.71015C6.89484 1.71544 6.8851 1.72073 6.87535 1.72602C6.85764 1.73572 6.83992 1.74629 6.8222 1.75598C6.81423 1.76039 6.80626 1.76484 6.79828 1.77013C6.77702 1.78159 6.75665 1.79391 6.73627 1.80536C6.73096 1.80801 6.72564 1.81154 6.72121 1.81418C6.63971 1.86089 6.5591 1.90933 6.47937 1.95781C6.4776 1.95869 6.47582 1.95961 6.47405 1.9605C6.44925 1.97548 6.42356 1.99132 6.39875 2.00719C6.39698 2.00807 6.39521 2.00894 6.39255 2.00982C5.84065 2.35089 5.31533 2.73072 4.82012 3.14405C7.16681 1.18403 10.193 0.00218964 13.4964 0.00218964C16.9921 0.00218964 20.1768 1.32417 22.574 3.49219H22.5748C20.9129 1.98868 18.8728 0.892328 16.6138 0.361781C15.9582 0.206671 15.2841 0.100025 14.5958 0.0453836C14.5931 0.0445023 14.5896 0.044523 14.586 0.044523C14.5586 0.041879 14.5302 0.0400996 14.5027 0.038337C14.4965 0.0374557 14.4903 0.0374432 14.4841 0.0365619C14.4584 0.0347993 14.4336 0.0330531 14.408 0.0312904C14.4009 0.0312904 14.3938 0.0304298 14.3867 0.0304298C14.3619 0.0286672 14.3362 0.0268671 14.3105 0.0251045C14.3043 0.0251045 14.2972 0.0242438 14.291 0.0242438C14.2272 0.0207186 14.1635 0.0172054 14.0997 0.0145615C14.0952 0.0145615 14.0908 0.0136471 14.0864 0.0136471C14.0589 0.0127658 14.0323 0.0118926 14.0058 0.0110113C13.996 0.01013 13.9863 0.0101175 13.9765 0.00923623C13.9553 0.00923623 13.934 0.00839623 13.9127 0.00751493C13.9012 0.00751493 13.8897 0.00660048 13.8773 0.00660048C13.8578 0.00571917 13.8374 0.0057067 13.818 0.00482539C13.8056 0.00482539 13.7932 0.00484604 13.7816 0.00396474C13.7622 0.00396474 13.7427 0.00310408 13.7223 0.00310408C13.7108 0.00310408 13.6984 0.00307095 13.6869 0.00218964C13.6647 0.00218964 13.6434 0.00218964 13.6222 0.00218964C13.6116 0.00130833 13.6018 0.00132899 13.5921 0.00132899C13.5602 0.00132899 13.5292 0.00132899 13.4973 0.00132899C13.4716 0.00132899 13.4459 0.00132899 13.4202 0.00132899V0.00132899ZM4.79975 3.1617C4.80684 3.15553 4.81392 3.15022 4.82012 3.14405C4.81392 3.15022 4.80684 3.15553 4.79975 3.1617ZM4.76254 3.19343C4.77494 3.18286 4.78735 3.17227 4.79975 3.1617C4.78735 3.17227 4.77494 3.18286 4.76254 3.19343ZM4.70142 3.2454C4.72179 3.22777 4.74217 3.21018 4.76254 3.19343C4.74217 3.21018 4.72179 3.22777 4.70142 3.2454Z" fill="#949494"/>
<path d="M12.6414 9.69989C12.6414 9.69989 14.2005 7.69404 14.3494 7.44727C14.4982 7.20051 14.5575 7.00309 14.1341 6.73958C13.7124 6.47695 12.2994 5.65381 12.0186 5.44053C11.7378 5.22726 11.7874 4.43761 12.6139 4.2728C13.4404 4.108 20.6152 3.51576 23.4092 3.81188C26.2033 4.108 25.8232 4.89765 25.84 5.53924C25.856 6.18083 24.715 7.1018 23.1939 8.46606C23.1939 8.46606 20.6816 10.7857 18.8461 12.3808C17.0114 13.9769 11.1425 18.8937 10.0015 19.7821C8.86136 20.6704 4.43818 23.9445 4.15116 24.1586C3.86414 24.3728 3.06153 25.0153 2.62391 24.5676C2.18629 24.1198 2.62391 23.6193 2.84627 23.3143C3.06773 23.0103 11.9796 10.4895 12.6414 9.69989Z" fill="#F6F6F6"/>
<path d="M12.3534 6.3205C12.6343 6.53465 14.0464 7.35691 14.4689 7.62042L14.6133 7.72266L14.6842 7.61866C14.833 7.3719 14.8924 7.17448 14.4689 6.91097C14.0464 6.64746 12.6343 5.8252 12.3534 5.61192L11.8901 5.24089C12.0673 5.72121 12.1834 6.19182 12.3534 6.3205Z" fill="#949494"/>
<path d="M25.8401 5.53793C25.678 6.15749 24.715 7.09965 23.1948 8.4648C23.1948 8.4648 20.6816 10.7835 18.8461 12.3787C17.0123 13.9747 11.1434 18.8915 10.0024 19.7799C8.86138 20.6674 4.43909 23.9414 4.15207 24.1565C3.93237 24.3195 2.95791 24.4605 2.53003 24.4482C2.66823 24.6456 2.91538 24.8624 3.17052 25.1082C3.62054 25.5427 4.40986 24.9135 4.69777 24.7002C4.98479 24.4852 9.40708 21.2111 10.5481 20.3237C11.6882 19.4353 17.5571 14.5176 19.3918 12.9224C21.2282 11.3264 23.7414 9.00679 23.7414 9.00679C25.2616 7.64253 26.0925 6.89958 26.2529 6.27826C26.3282 5.99183 26.4283 5.09465 25.6691 4.57115C25.7816 4.84436 25.8844 5.3652 25.8401 5.53793" fill="#949494"/>
<path d="M12.6414 9.69989C12.6414 9.69989 14.2005 7.69404 14.3494 7.44727C14.4982 7.20051 14.5575 7.00309 14.1341 6.73958C13.7124 6.47695 12.2994 5.65381 12.0186 5.44053C11.7378 5.22726 11.7874 4.43761 12.6139 4.2728C13.4404 4.108 20.6152 3.51576 23.4092 3.81188C26.2033 4.108 25.9508 5.11269 25.84 5.53924C25.6779 6.16056 24.715 7.1018 23.1939 8.46606C23.1939 8.46606 20.6816 10.7857 18.8461 12.3808C17.0114 13.9769 11.1425 18.8937 10.0015 19.7821C8.86136 20.6704 4.43818 23.9445 4.15116 24.1586C3.86414 24.3728 3.06153 25.0153 2.62391 24.5676C2.18629 24.1198 2.62391 23.6193 2.84627 23.3143C3.06773 23.0103 11.9796 10.4895 12.6414 9.69989Z" fill="#F6F6F6"/>
</svg>
