<svg width="93" height="78" viewBox="0 0 93 78" fill="none" xmlns="http://www.w3.org/2000/svg">
<rect width="93" height="78" fill="black" fill-opacity="0"/>
<rect y="15" width="93" height="48" fill="#949494"/>
<rect width="65" height="78" fill="black" fill-opacity="0" transform="translate(15)"/>
<rect width="65" height="78" fill="black" fill-opacity="0" transform="translate(15)"/>
<rect width="65" height="78" fill="black" fill-opacity="0" transform="translate(15)"/>
<path d="M77.7414 38.8044C77.3444 38.4797 76.91 38.2016 76.4471 37.9757H76.3309L76.4305 37.8782C77.0824 37.2808 77.5926 36.5507 77.9252 35.7393C78.2578 34.9279 78.4046 34.0549 78.3554 33.1819C78.4433 32.2009 78.2711 31.2142 77.8553 30.3174C77.4396 29.4206 76.7945 28.6442 75.9825 28.0632C74.2915 27.0317 72.3115 26.5484 70.324 26.6819H63.2218C63.0251 26.6861 62.8376 26.7645 62.6985 26.9007C62.5594 27.037 62.4793 27.2206 62.4751 27.4132V50.1632C62.4751 50.3571 62.5538 50.5431 62.6938 50.6803C62.8338 50.8174 63.0238 50.8944 63.2218 50.8944H71.3362C73.4848 50.992 75.6101 50.4234 77.4095 49.2694C78.2299 48.6768 78.8812 47.8879 79.3012 46.9782C79.7857 45.933 80.0239 44.7945 79.9982 43.6469C80.0194 42.7253 79.8274 41.811 79.4366 40.9724C79.0458 40.1338 78.4662 39.3926 77.7414 38.8044V38.8044ZM64.7982 28.9732H70.324C71.8377 28.87 73.3491 29.2033 74.6715 29.9319C75.1746 30.3063 75.5683 30.8037 75.8129 31.3741C76.0576 31.9446 76.1447 32.5681 76.0654 33.1819C76.1246 33.6936 76.0686 34.2116 75.9014 34.6998C75.7343 35.188 75.4599 35.6344 75.0978 36.0076C74.7356 36.3809 74.2944 36.6719 73.805 36.8603C73.3157 37.0487 72.7902 37.1299 72.2654 37.0982H64.7982V28.9732ZM71.4358 48.6682H64.8314V39.3244H72.2986C75.5344 39.3244 77.7912 41.1119 77.8078 43.6632C77.8078 44.8819 77.8078 48.6357 71.3694 48.6519L71.4358 48.6682Z" fill="#F6F6F6"/>
<path d="M30.7309 30.354C29.6841 29.1396 28.3435 28.201 26.8314 27.624C25.4449 27.0996 23.9701 26.835 22.4838 26.844H15.7467C15.5457 26.8524 15.3557 26.9365 15.2166 27.0788C15.0774 27.2212 14.9998 27.4107 15 27.6077V50.3577C15 50.5517 15.0787 50.7377 15.2187 50.8748C15.3587 51.0119 15.5487 51.089 15.7467 51.089H22.3842C23.8771 51.0936 25.3575 50.8235 26.7484 50.2927C28.2739 49.6925 29.6165 48.7189 30.648 47.4652C32.5472 45.0391 33.553 42.0555 33.5021 38.999C33.5466 35.9012 32.5753 32.8711 30.7309 30.354V30.354ZM28.972 45.954C28.1828 46.8686 27.1916 47.5955 26.0733 48.0797C24.955 48.5639 23.7389 48.7928 22.517 48.749H17.3563V29.054H22.4672C23.6891 29.0049 24.9063 29.2281 26.0273 29.7066C27.1483 30.1851 28.1438 30.9065 28.9388 31.8165C30.4441 33.9176 31.2286 36.4328 31.179 38.999C31.2528 41.493 30.4763 43.9402 28.972 45.954V45.954Z" fill="#F6F6F6"/>
<path d="M56.916 0V50.375C56.9138 50.5186 56.8664 50.6581 56.7803 50.7744C56.6942 50.8907 56.5735 50.9782 56.4348 51.025C56.3637 51.0399 56.2902 51.0399 56.2191 51.025C56.1057 51.0237 55.9942 50.9967 55.8934 50.9459C55.7926 50.8951 55.7053 50.8221 55.6383 50.7325L40.372 31.7687L40.5379 78H38.1318V27.2513C38.1327 27.105 38.1816 26.9628 38.2712 26.8458C38.3608 26.7288 38.4865 26.643 38.6296 26.6013C38.7005 26.584 38.7745 26.584 38.8454 26.6013C38.9569 26.6029 39.0667 26.6286 39.1671 26.6763C39.2674 26.724 39.3558 26.7927 39.4262 26.8775L54.6759 45.8412L54.5763 0H56.916Z" fill="#F6F6F6"/>
</svg>
