<svg width="185" height="34" viewBox="0 0 185 34" fill="none" xmlns="http://www.w3.org/2000/svg">
<rect width="185" height="34.0008" fill="black" fill-opacity="0"/>
<rect width="185" height="34.0008" fill="black" fill-opacity="0"/>
<path d="M95.2126 17.3612C92.7412 16.914 91.4172 16.1089 91.4172 14.7671C91.4172 13.2464 92.5647 12.5308 95.036 12.5308C96.36 12.5308 97.3309 12.7992 98.3901 13.0675C98.5666 13.157 98.7431 13.157 98.9196 13.157C99.5375 13.157 100.155 12.8886 100.332 12.0836C100.332 11.9047 100.332 11.8152 100.332 11.7258C100.332 11.0101 99.8905 10.4734 99.1844 10.2945C97.8605 9.93672 96.6248 9.75781 94.9478 9.75781C92.8295 9.75781 91.1525 10.2051 90.005 11.189C88.8576 12.0836 88.2398 13.4253 88.2398 14.946C88.2398 18.0768 90.2698 19.687 94.5065 20.5815C97.4192 21.1182 98.3018 21.7444 98.3018 23.0861C98.3018 24.4279 97.4192 25.5013 94.7713 25.5013C93.006 25.5013 91.4172 25.0541 90.0933 24.6963C89.9168 24.6963 89.652 24.6068 89.4754 24.6068C88.7693 24.6068 88.2398 25.0541 88.1515 25.6802C88.1515 25.8591 88.0632 25.9486 88.0632 26.1275C88.0632 26.8431 88.5045 27.3798 89.2107 27.5587C90.7111 28.006 92.5647 28.3638 94.7713 28.3638C99.6258 28.3638 101.391 25.5908 101.391 22.9967C101.479 19.5975 99.361 18.1663 95.2126 17.3612Z" fill="#949494"/>
<path d="M116.572 9.75781C115.69 9.75781 115.16 10.2051 114.895 10.9207L110.924 22.46C110.747 22.8178 110.747 22.9072 110.659 22.9072C110.57 22.9072 110.57 22.8178 110.217 22.1022L105.451 10.7418C105.186 10.1156 104.569 9.75781 103.862 9.75781C102.892 9.75781 102.274 10.384 102.274 11.0996C102.274 11.2785 102.274 11.5469 102.45 11.7258L107.481 23.8018C108.011 25.0541 108.893 25.7697 109.6 26.1275L109.511 26.3959C108.099 30.4212 107.128 31.0474 105.098 31.1368C104.039 31.2263 103.598 31.763 103.598 32.4786V32.568C103.598 33.4626 104.127 33.9993 105.098 33.9993H105.186C109.776 33.9098 111.365 30.6001 112.512 27.2904L117.896 11.6363C117.985 11.4574 117.985 11.2785 117.985 11.0996C118.073 10.2945 117.367 9.75781 116.572 9.75781Z" fill="#949494"/>
<path d="M66.615 15.1253C66.615 15.1253 61.0544 16.0198 59.7305 16.3776C58.4065 16.7354 58.7596 18.1666 58.7596 18.1666C58.7596 18.1666 58.8478 19.4189 60.3483 19.24C61.8488 19.0611 66.1737 18.435 66.1737 18.435C68.7334 18.2561 70.7634 17.2721 70.7634 13.8729C70.7634 13.4257 70.7634 12.9784 70.6752 12.5311C70.1456 8.05856 67.0563 5.375 62.3784 5.375C57.7004 5.375 54.4347 8.32691 53.6403 12.7995C53.4638 14.0518 53.199 14.9463 53.199 16.7354C53.199 18.435 53.3755 19.6873 53.6403 20.8502C54.5229 25.1439 57.7004 28.0063 62.3784 28.0063C64.585 28.0063 66.7033 27.3802 69.1747 26.1278C69.7043 25.8595 70.1456 25.2333 70.1456 24.5177C70.1456 24.2493 70.0573 23.981 69.969 23.7126C69.7043 23.0865 69.1747 22.7287 68.5568 22.7287C68.292 22.7287 67.939 22.8181 67.6742 22.997C65.6441 23.981 64.0554 24.5177 62.4666 24.5177C59.4657 24.5177 57.8769 23.3548 57.3474 20.6713C56.7295 17.9877 56.6413 16.1987 57.1708 13.0679C57.7004 10.1159 59.554 8.86362 62.4666 8.86362C65.3793 8.86362 67.0564 10.2054 67.4094 12.889C67.4094 13.2468 67.4094 13.5151 67.4094 13.694C67.3211 14.4991 67.3211 14.9463 66.615 15.1253Z" fill="#949494"/>
<path d="M79.0603 9.66797C76.9419 9.66797 75.618 9.84687 73.5879 10.3836C72.8818 10.5625 72.4405 11.0992 72.4405 11.7254C72.4405 11.9043 72.4405 11.9937 72.5288 12.1726C72.7053 12.8882 73.3231 13.246 74.0292 13.246C74.2058 13.246 74.3823 13.246 74.4706 13.1566C76.2358 12.7093 77.2067 12.441 79.0603 12.441C80.4725 12.441 81.6199 12.7988 82.326 13.5144C82.9439 14.0511 83.2086 14.7667 83.3852 16.1085C83.3852 16.3769 83.4734 18.7026 83.4734 18.7921V20.0444C83.4734 22.3701 83.2087 23.533 82.4143 24.2486C81.7082 24.9642 80.5607 25.322 79.1485 25.322C76.6771 25.322 75.1767 24.6064 74.7353 23.0857C74.6471 22.8174 74.5588 22.3701 74.5588 21.9229C74.5588 21.4756 74.5588 21.1178 74.7353 20.76C75.0001 20.0444 75.4415 18.4342 79.1485 18.4342C79.2368 18.4342 80.0312 18.4342 80.3842 18.4342C80.5607 18.4342 80.7373 18.4342 80.8255 18.4342C81.4434 18.3448 82.0612 17.8081 82.0612 17.1819C82.0612 17.003 82.0612 16.8241 82.0612 16.7347C81.973 16.0191 80.7373 15.8401 80.1194 15.7507C79.8546 15.7507 79.5016 15.7507 79.1485 15.7507C75.0884 15.7507 72.617 17.1819 71.8227 20.0444C71.6461 20.6705 71.5579 21.2967 71.5579 21.9229C71.5579 22.6385 71.6461 23.2646 71.8227 23.8908C72.1757 25.2326 73.6762 28.1845 79.2368 28.1845C81.5316 28.1845 83.4734 27.5583 84.7974 26.306C86.4744 24.7853 86.7392 22.7279 86.7392 20.0444V17.8081C86.7392 15.1245 86.4744 13.0671 84.7974 11.5465C83.2969 10.2941 81.3551 9.66797 79.0603 9.66797Z" fill="#949494"/>
<path d="M10.4795 20.9419C9.94992 19.5107 9.42034 18.0795 9.06729 16.0221C8.71423 13.9647 8.8025 12.8018 8.8025 11.1917C8.8025 7.43469 10.303 4.30388 13.0391 2.33594C3.948 6.18237 -1.6126 13.7858 0.417462 20.1369C2.271 26.1301 10.1265 29.082 18.9528 27.7403C14.9809 27.293 11.98 24.7884 10.4795 20.9419Z" fill="#949494"/>
<path d="M127.429 9.57922C125.928 9.57922 124.339 10.0265 122.839 10.5632V5.73279C122.839 4.92773 122.133 4.48047 121.338 4.48047C120.544 4.48047 119.838 5.01718 119.838 5.73279V18.7928C119.838 19.8662 119.838 21.1185 120.014 22.2814C120.544 25.8595 123.28 28.0063 127.429 28.0063C131.489 28.0063 134.313 25.8595 134.754 22.2814C134.843 21.2974 134.931 20.224 134.931 18.7928C134.931 17.3615 134.931 16.3776 134.754 15.3041C134.137 11.7261 131.489 9.57922 127.429 9.57922ZM131.665 21.9236C131.4 24.0704 129.9 25.2333 127.34 25.2333C124.781 25.2333 123.28 24.0704 123.015 21.9236C122.927 21.1185 122.839 20.0451 122.839 18.8822V13.4257C124.339 12.8889 126.193 12.5311 127.34 12.5311C129.9 12.5311 131.4 13.694 131.665 15.8409C131.753 16.7354 131.753 17.8982 131.753 18.8822C131.753 19.7767 131.753 20.9396 131.665 21.9236Z" fill="#949494"/>
<path d="M160.528 9.75781C158.233 9.75781 156.291 10.384 154.967 11.6363C153.378 13.157 153.025 15.2144 153.025 17.8979V26.8431C153.025 27.6482 153.731 28.1849 154.614 28.1849C155.497 28.1849 156.203 27.6482 156.203 26.8431V17.8979C156.203 15.4827 156.467 14.4093 157.262 13.6937C157.968 12.9781 159.115 12.6203 160.616 12.6203C162.116 12.6203 163.175 12.9781 163.97 13.6937C164.764 14.4093 165.029 15.5722 165.029 17.8979V26.8431C165.029 27.6482 165.735 28.1849 166.618 28.1849C167.5 28.1849 168.206 27.6482 168.206 26.8431V17.8979C168.206 15.2144 167.853 13.157 166.176 11.6363C164.764 10.384 162.822 9.75781 160.528 9.75781Z" fill="#949494"/>
<path d="M184.712 25.6806L179.328 19.7767C178.886 19.3295 178.268 18.7033 177.651 18.3455C178.357 17.8982 178.975 17.451 179.328 17.0932L184.182 12.1733C184.535 11.905 184.623 11.4577 184.623 11.0999C184.623 10.3843 184.006 9.75813 183.035 9.75813C182.329 9.75813 181.976 10.0265 181.622 10.3843L176.062 16.0198C175.179 16.8248 174.914 17.0932 174.473 17.0932H173.149V5.82225C173.149 5.01718 172.443 4.48047 171.56 4.48047C170.678 4.48047 169.972 5.01718 169.972 5.82225V26.8434C169.972 27.6485 170.678 28.1852 171.56 28.1852C172.443 28.1852 173.149 27.6485 173.149 26.8434V19.8662H174.561C175.091 19.8662 175.179 19.9556 175.885 20.7607L182.064 27.559C182.329 27.9169 182.858 28.0958 183.388 28.0958C184.447 28.0958 184.976 27.3801 184.976 26.6645C185.065 26.3067 184.888 25.9489 184.712 25.6806Z" fill="#949494"/>
<path d="M143.758 9.58203C141.639 9.58203 140.315 9.76094 138.285 10.2976C137.579 10.4765 137.138 11.0133 137.138 11.6394C137.138 11.8183 137.138 11.9078 137.226 12.0867C137.403 12.8023 138.02 13.1601 138.727 13.1601C138.903 13.1601 139.08 13.1601 139.168 13.0707C140.933 12.6234 141.904 12.355 143.758 12.355C145.258 12.355 146.317 12.7128 147.023 13.4285C147.641 13.9652 147.906 14.6808 148.082 16.0226C148.082 16.2909 148.171 18.6167 148.171 18.7061V19.9584C148.171 22.2842 147.906 23.4471 147.112 24.1627C146.405 24.8783 145.258 25.2361 143.846 25.2361C141.374 25.2361 139.874 24.5205 139.433 22.9998C139.344 22.7315 139.256 22.2842 139.256 21.8369C139.256 21.3897 139.256 21.0319 139.433 20.6741C139.697 19.9584 140.139 18.3483 143.846 18.3483C143.934 18.3483 144.728 18.3483 145.081 18.3483C145.258 18.3483 145.435 18.3483 145.523 18.3483C146.141 18.2589 146.758 17.7221 146.758 17.096C146.758 16.9171 146.758 16.7382 146.758 16.6487C146.67 15.9331 145.435 15.7542 144.817 15.6648C144.552 15.6648 144.199 15.5753 143.846 15.5753C139.786 15.5753 137.314 17.0065 136.52 19.869C136.343 20.4952 136.255 21.1213 136.255 21.7475C136.255 22.4631 136.343 23.0893 136.52 23.7154C136.873 25.0572 138.373 28.0091 143.934 28.0091C146.229 28.0091 148.171 27.3829 149.495 26.1306C151.172 24.6099 151.436 22.5525 151.436 19.869V17.6327C151.436 14.9491 151.172 12.8917 149.495 11.3711C147.994 10.2082 146.052 9.58203 143.758 9.58203Z" fill="#949494"/>
<path d="M20.8946 0.187203C24.8665 0.455558 27.9557 2.87076 29.1914 7.07499C29.3679 7.70116 29.5444 8.23787 29.6327 8.68513C30.3388 12.7105 28.1322 14.3206 25.043 15.1257C25.043 15.1257 20.012 16.9147 18.2467 17.362C16.4814 17.8987 16.0401 16.378 16.0401 16.378C16.0401 16.378 15.2457 14.7679 16.7462 14.0522C18.2467 13.3366 24.7782 11.0109 24.7782 11.0109C25.5726 10.6531 25.4843 10.2058 25.3078 9.22184C25.2195 8.95348 25.2195 8.68513 25.1313 8.23787C24.1604 5.10705 21.8655 3.76528 18.335 4.48089C14.8044 5.10705 12.7744 7.52225 12.8626 10.6531C12.8626 14.5889 13.3922 16.7358 14.6279 19.7772C15.9519 22.908 18.0702 23.8919 21.689 23.2658C23.6308 22.908 25.4843 21.924 27.6909 20.2244C28.044 19.9561 28.397 19.7772 28.7501 19.6877C29.5444 19.5088 30.2505 19.8666 30.6919 20.5822C30.8684 20.94 31.0449 21.2084 31.1332 21.5662C31.2214 22.0135 31.1332 22.3713 31.0449 22.7291C36.9586 18.6143 40.0478 12.7999 38.4591 7.70116C36.6055 2.15514 29.3679 -0.796768 20.8946 0.187203Z" fill="#949494"/>
</svg>
