<svg width="104" height="41" viewBox="0 0 104 41" fill="none" xmlns="http://www.w3.org/2000/svg">
<rect width="104" height="39.9993" fill="black" fill-opacity="0"/>
<path d="M0.00427894 25.9898C-0.0152253 23.9274 0.36422 21.8803 1.12215 19.9589C1.7657 18.2587 2.79459 16.7272 4.12977 15.4819C5.31245 14.3769 6.68172 13.4855 8.17542 12.8483C9.61158 12.3086 11.1374 12.0406 12.6735 12.0582C14.2597 11.9491 15.8504 12.1929 17.3288 12.7716C18.8073 13.3504 20.136 14.2495 21.2173 15.4029C23.4258 18.3106 24.4858 21.9159 24.1983 25.5421L24.0386 28.3337H8.06895C8.05771 28.2286 8.05771 28.1227 8.06895 28.0176C8.04939 27.7634 8.04939 27.5081 8.06895 27.2539C8.14714 26.895 8.25393 26.5427 8.38834 26.2005C8.57719 25.805 8.7998 25.4261 9.05375 25.068C9.33597 24.653 9.68689 24.2879 10.0918 23.9883C10.5634 23.6405 11.0957 23.3816 11.6621 23.2245C12.3589 23.005 13.0869 22.8983 13.818 22.9085H17.7306C17.7751 21.5225 17.3539 20.161 16.5329 19.0372C16.1218 18.5104 15.5868 18.091 14.9745 17.8156C14.3621 17.5401 13.691 17.4171 13.0195 17.457C12.0446 17.4287 11.0781 17.643 10.2085 18.0801C9.33898 18.5172 8.59416 19.1632 8.04233 19.9589C6.84881 21.7817 6.25384 23.9249 6.33891 26.0951C6.25787 27.2569 6.42979 28.4224 6.84304 29.5128C7.25629 30.6032 7.90126 31.5931 8.73435 32.4157C10.6632 33.9957 13.1291 34.787 15.6279 34.6279C16.7632 34.6223 17.8953 34.5076 19.0082 34.2855C19.9908 34.1276 20.9604 33.8987 21.9093 33.6008L22.9473 33.2848V38.5519L21.8827 38.9469C20.9042 39.2289 19.9085 39.4488 18.9017 39.6053C17.3547 39.8708 15.7873 40.003 14.2173 40.0004C12.4097 40.0181 10.6114 39.7423 8.89405 39.184C7.25756 38.6429 5.7336 37.8131 4.39593 36.7347C2.98348 35.5495 1.88674 34.0393 1.202 32.3367C0.361057 30.3265 -0.0468719 28.1648 0.00427894 25.9898ZM30.0538 8.23955C29.6556 7.88583 29.3344 7.45552 29.1098 6.97489C28.8852 6.49426 28.7619 5.97338 28.7475 5.44405C28.7331 4.91472 28.8278 4.38804 29.0259 3.89614C29.2241 3.40424 29.5214 2.95743 29.8998 2.58301C30.2782 2.20858 30.7298 1.91437 31.2269 1.71834C31.7241 1.52231 32.2564 1.42856 32.7913 1.44282C33.3263 1.45708 33.8527 1.57905 34.3385 1.80128C34.8242 2.02351 35.2591 2.34135 35.6166 2.7354C35.9878 3.09612 36.2826 3.52648 36.4837 4.00129C36.6848 4.4761 36.7881 4.98583 36.7877 5.50065C36.765 6.49727 36.3438 7.44432 35.6166 8.13421C35.2546 8.50132 34.822 8.79305 34.3444 8.99224C33.8667 9.19143 33.3536 9.29405 32.8352 9.29405C32.3169 9.29405 31.8037 9.19143 31.3261 8.99224C30.8484 8.79305 30.4158 8.50132 30.0538 8.13421V8.23955ZM29.6812 38.9996V12.98H36.0691V38.9996H29.6812Z" fill="#949494"/>
<path d="M42.5371 39.0031V0H48.8451V22.596L57.9744 13.0098H65.7463L48.8451 30.4967V38.9241L42.5371 39.0031ZM54.4079 31.2341C54.3568 30.8495 54.3568 30.4599 54.4079 30.0753C54.4098 29.6768 54.4544 29.2795 54.541 28.8902C54.6852 28.246 54.8994 27.6191 55.1797 27.0204C55.3679 26.5559 55.609 26.1141 55.8984 25.7036L56.271 25.2559L66.7311 39.0031H59.0923L55.4725 33.736C54.9028 33.0084 54.5357 32.1458 54.4079 31.2341V31.2341Z" fill="#949494"/>
<path d="M68.0086 31.7648C67.9481 30.5504 68.1548 29.3375 68.6144 28.2099C69.0739 27.0823 69.7753 26.0668 70.6702 25.2335C72.5934 23.6599 75.0451 22.8606 77.5371 22.995H83.3128V23.6007C83.3128 23.8377 83.1265 24.2591 82.9136 24.8912C82.7057 25.4711 82.4192 26.0204 82.0618 26.524C81.6348 27.101 81.0787 27.5725 80.4368 27.9015C79.795 28.2304 79.0849 28.4079 78.3622 28.4202H78.0694C77.1141 28.3499 76.1663 28.6313 75.4078 29.2102C75.0971 29.5092 74.8554 29.8711 74.6992 30.2711C74.543 30.6711 74.4761 31.0998 74.5029 31.5278C74.4808 31.9547 74.5581 32.3809 74.7289 32.7736C74.8996 33.1663 75.1592 33.5149 75.4877 33.7926C76.2932 34.3815 77.2828 34.6705 78.2824 34.609C79.551 34.6562 80.81 34.3749 81.935 33.7929C83.06 33.2109 84.012 32.3484 84.6968 31.2907V22.6C84.6565 21.6804 84.4111 20.7811 83.9782 19.9664C83.7216 19.3252 83.2765 18.7748 82.7006 18.3863C82.1288 18.0214 81.4989 17.7543 80.8375 17.5962C80.0955 17.4293 79.3361 17.3497 78.5751 17.3592C75.7163 17.4127 72.9094 18.1251 70.3774 19.4397V14.1726C71.5915 13.4614 72.9122 12.9458 74.29 12.6451C76.0275 12.1955 77.8173 11.9741 79.6132 11.9867C82.6075 11.7686 85.5818 12.6187 87.9972 14.3832C88.9898 15.2866 89.7637 16.3998 90.2614 17.64C90.7591 18.8802 90.9677 20.2155 90.8718 21.5465V38.9281H86.0809C85.6066 38.2434 85.2471 37.4875 85.0162 36.6896C83.9806 37.7368 82.7356 38.5588 81.3607 39.1029C79.9858 39.6471 78.5113 39.9015 77.0314 39.8498C74.6985 39.9436 72.4193 39.1415 70.6702 37.6113C69.8261 36.8848 69.1511 35.986 68.6917 34.9767C68.2322 33.9675 67.9992 32.8717 68.0086 31.7648V31.7648ZM97.2862 38.4014C96.9202 38.0644 96.6275 37.657 96.4261 37.2041C96.2247 36.7513 96.1189 36.2625 96.1151 35.7678C96.0805 35.2253 96.1675 34.6818 96.3699 34.1764C96.5724 33.6711 96.8853 33.2162 97.2862 32.8445C97.749 32.3902 98.3185 32.0566 98.9437 31.8737C99.5689 31.6908 100.23 31.6643 100.868 31.7965C101.506 31.9287 102.101 32.2156 102.6 32.6313C103.098 33.0471 103.484 33.5788 103.724 34.1787C103.964 34.7786 104.049 35.4279 103.973 36.0685C103.896 36.7091 103.66 37.321 103.286 37.8491C102.912 38.3773 102.411 38.8052 101.828 39.0947C101.246 39.3841 100.6 39.526 99.9479 39.5075C99.4519 39.509 98.9608 39.4119 98.5035 39.2219C98.0463 39.0319 97.6323 38.7528 97.2862 38.4014V38.4014Z" fill="#949494"/>
</svg>
