<svg width="126" height="29" viewBox="0 0 126 29" fill="none" xmlns="http://www.w3.org/2000/svg">
<rect width="126" height="29" fill="black" fill-opacity="0"/>
<rect width="126" height="29" fill="black" fill-opacity="0"/>
<path d="M37.9771 0.0126087L38.4181 0C39.0985 0 39.8293 0.176522 40.56 0.504348C40.8372 0.630435 41.7696 1.16 41.7696 1.19783L41.5176 1.85348C41.19 2.68565 40.8876 3.53043 40.5852 4.37522L39.9805 4.07261C39.2245 3.69435 38.8213 3.56826 38.2291 3.60609C37.9519 3.6187 37.7251 3.66913 37.4605 3.74478C37.1976 3.81199 36.9633 3.96235 36.7927 4.17348C36.5785 4.40043 36.4399 4.58957 36.3265 4.81652C35.8441 5.91415 35.587 7.09756 35.5705 8.29652V8.8387H39.8797V12.2304H35.5705V29H31.8535V17.7404C31.8787 5.91348 31.8661 6.34217 32.0677 5.38391C32.3575 3.97174 33.2269 2.35783 34.1719 1.47522C35.0539 0.643044 35.9989 0.239565 37.4857 0.0882609C37.7377 0.0630435 37.9645 0.0252174 37.9771 0.0126087V0.0126087ZM101.909 6.40522L101.922 1.81565H103.484C104.958 1.81565 105.059 1.81565 105.223 1.90391C105.349 1.96696 105.437 2.05522 105.513 2.1813L105.613 2.35783V11.0578C105.601 20.1613 105.601 20.2622 105.412 21.46C105.248 22.4939 104.883 23.3513 104.152 24.4609C103.32 25.6817 102.236 26.7097 100.973 27.4753C99.7101 28.241 98.2977 28.7265 96.8312 28.8991C96.1886 28.9874 94.6137 29 94.0593 28.9117C91.799 28.629 89.7109 27.5574 88.1625 25.8857C87.2255 24.9568 86.4892 23.8451 85.9994 22.6196C85.5095 21.3942 85.2765 20.0811 85.3149 18.7617C85.2792 17.376 85.5318 15.998 86.0568 14.7151C86.5817 13.4323 87.3674 12.2727 88.3641 11.31C89.91 9.71179 91.9731 8.71526 94.1853 8.49826C95.1303 8.42261 96.0752 8.44783 97.0202 8.57391C98.8094 8.88913 100.334 9.62043 101.695 10.8057L101.896 10.9822L101.909 6.40522V6.40522ZM96.8186 12.0413C96.0626 11.9152 95.3067 11.9152 94.5633 11.9909C93.0387 12.243 91.6149 13.0374 90.6447 14.21C89.915 15.0457 89.4013 16.0478 89.1487 17.1284C88.8961 18.209 88.9123 19.3351 89.1959 20.408C89.4795 21.4809 90.0218 22.4678 90.7752 23.2821C91.5287 24.0964 92.4703 24.7133 93.5175 25.0787C95.0799 25.583 96.869 25.4696 98.3432 24.7887C99.5126 24.1998 100.494 23.2958 101.178 22.1787C102.3 20.2874 102.4 17.6396 101.43 15.5717C100.986 14.6671 100.338 13.8776 99.5383 13.2651C98.7383 12.6526 97.8074 12.2337 96.8186 12.0413V12.0413ZM43.6722 14.2604V8.88913H47.3388V13.7687C47.3388 19.6443 47.3766 20.8296 47.5908 21.9265C47.7691 22.7486 48.1837 23.5006 48.7837 24.0898C49.3837 24.679 50.1428 25.0797 50.9676 25.2426C51.3204 25.3183 51.4968 25.3309 52.278 25.3309C52.9962 25.3309 53.2608 25.3309 53.5506 25.2552C54.4331 25.0959 55.2435 24.6634 55.8674 24.0187C56.4913 23.374 56.8973 22.5496 57.0281 21.6617C57.1793 20.653 57.1919 20.1109 57.2045 14.4874L57.2297 8.88913H60.9341V14.1596C60.9341 19.3922 60.9089 20.3 60.7703 21.4096C60.4931 23.8052 59.8127 25.3561 58.4771 26.7052C57.8975 27.2852 57.3431 27.6761 56.6627 28.0417C55.5791 28.5965 54.5459 28.8613 53.034 28.9622C51.2911 29.1113 49.5397 28.7982 47.9562 28.0543C47.2664 27.703 46.6404 27.2384 46.104 26.68C44.592 25.167 43.9368 23.4017 43.71 20.2748C43.6848 19.8965 43.6722 17.5513 43.6722 14.2604V14.2604ZM72.3622 8.95217C73.0678 8.86391 75.172 8.88913 75.7012 8.99C76.5328 9.15391 77.2006 9.38087 77.9692 9.78435C78.9245 10.245 79.7551 10.9288 80.391 11.778C81.027 12.6273 81.4495 13.617 81.6232 14.6639C81.9256 16.1896 81.9508 16.6813 81.9508 23.2252V28.9622H78.322V24.1078C78.322 18.3078 78.2716 16.6687 78.0952 15.7357C78.0196 15.307 77.8432 14.7648 77.6542 14.4117C77.3906 13.9243 76.9984 13.5187 76.5202 13.2391C75.5122 12.7978 74.4286 12.6087 73.345 12.7096C72.2497 12.6906 71.1755 13.0122 70.2706 13.63C69.1996 14.3487 68.7586 15.2187 68.7586 16.5804C68.7586 16.6813 68.7208 17.0217 68.6578 17.337C68.494 18.4213 68.4689 19.14 68.4563 24.133L68.431 28.9622H64.7771L64.7645 24.9274C64.7393 17.463 64.7393 17.5387 64.8527 16.7696C65.1929 14.3991 65.7347 12.9239 66.6419 11.8522C67.3285 11.1206 68.103 10.4769 68.9476 9.93565C70.0191 9.40933 71.1751 9.07639 72.3622 8.95217V8.95217ZM108.751 14.6261L108.738 8.88913H112.405L112.417 14.437C112.443 19.9848 112.455 20.5396 112.606 21.5609C112.795 22.91 113.488 23.9691 114.635 24.6752C115.391 25.1291 116.248 25.3687 117.13 25.3435C118.201 25.3813 118.931 25.2552 119.675 24.9022C120.635 24.4414 121.395 23.6487 121.817 22.6704C122.233 21.6743 122.283 20.7161 122.283 13.8443V8.87652H126V14.1974C126 20.3504 125.975 21.0187 125.672 22.5191C125.42 24.0322 124.74 25.4191 123.707 26.5539C122.39 27.9175 120.619 28.7517 118.73 28.8991C118.175 28.9748 116.563 28.9748 116.008 28.8991C114.147 28.7525 112.402 27.9375 111.094 26.6043C109.979 25.3511 109.253 23.8002 109.003 22.1409C108.763 20.7287 108.776 20.7665 108.751 14.6009V14.6261V14.6261Z" fill="#949494"/>
<path fill-rule="evenodd" clip-rule="evenodd" d="M15.2216 2.77263C16.4405 2.69395 17.6627 2.86377 18.814 3.2718C19.9654 3.67984 21.022 4.31758 21.9197 5.14639C22.8174 5.97519 23.5376 6.97779 24.0366 8.0934C24.5357 9.20902 24.8031 10.4144 24.8227 11.6365C24.8227 12.267 24.7471 12.5192 24.4699 12.8974C23.7013 13.9439 22.0508 13.7548 21.4838 12.5822C21.3691 12.3157 21.3132 12.0275 21.32 11.7374C21.3055 10.9979 21.1435 10.2687 20.8433 9.5927C20.5431 8.91675 20.1109 8.30769 19.572 7.80135C19.0332 7.29501 18.3986 6.90162 17.7055 6.64432C17.0125 6.38701 16.2751 6.27099 15.5366 6.30307C14.2868 6.37395 13.0973 6.86414 12.16 7.69455C11.2227 8.52495 10.5924 9.64713 10.3706 10.88C10.3076 11.1952 10.295 11.7248 10.2824 14.5618L10.2572 17.8779L10.1312 18.13C9.98821 18.4319 9.7625 18.687 9.48036 18.8656C9.19821 19.0441 8.87121 19.139 8.53735 19.139C8.2035 19.139 7.8765 19.0441 7.59435 18.8656C7.31221 18.687 7.0865 18.4319 6.94347 18.13L6.80487 17.84L6.79227 14.6122C6.77967 12.4435 6.79227 11.2205 6.81747 10.9052C7.03042 8.77384 7.99171 6.78704 9.53046 5.298C11.0692 3.80896 13.0857 2.91416 15.2216 2.77263V2.77263ZM15.65 11.5357C15.8768 11.4348 15.9524 11.4348 16.343 11.4474C16.6958 11.4474 16.8092 11.4726 17.0108 11.5735C17.3006 11.6996 17.6408 12.0148 17.8046 12.267C18.0566 12.6957 18.044 12.6452 18.044 16.1126C18.044 19.4918 18.0188 19.8196 17.8298 20.7274C17.4952 22.1877 16.8046 23.5423 15.8197 24.6706C14.8348 25.7989 13.5862 26.6658 12.1852 27.1938C10.7842 27.7219 9.27433 27.8948 7.79032 27.6972C6.30631 27.4995 4.89426 26.9373 3.68009 26.0609C2.56651 25.2425 1.65565 24.1791 1.01775 22.9527C0.379854 21.7263 0.0319657 20.3697 0.000917017 18.9874C-0.0116829 18.1931 0.101716 17.8526 0.580513 17.4365C0.92071 17.1213 1.21051 17.0205 1.7397 17.0079C2.1555 17.0079 2.1933 17.0205 2.4957 17.1718C2.8863 17.3735 3.13829 17.6257 3.32729 18.0039C3.44069 18.2561 3.45329 18.3696 3.49109 18.8613C3.51406 19.6508 3.70446 20.4264 4.04967 21.1367C4.39487 21.8469 4.887 22.4756 5.49343 22.9812C6.09986 23.4867 6.80673 23.8574 7.5672 24.0688C8.32767 24.2802 9.12435 24.3275 9.90444 24.2074C10.8953 24.0311 11.82 23.5899 12.5808 22.9307C13.3416 22.2715 13.9101 21.4187 14.2262 20.4626C14.4782 19.7061 14.4908 19.6052 14.4908 16.3018C14.4908 14.6374 14.516 13.1496 14.5286 12.9731C14.6168 12.2922 14.9948 11.8257 15.6374 11.5483L15.65 11.5357Z" fill="#949494"/>
</svg>
