<svg width="150" height="25" viewBox="0 0 150 25" fill="none" xmlns="http://www.w3.org/2000/svg">
<rect width="150" height="24.25" fill="black" fill-opacity="0" transform="translate(0 0.75)"/>
<path fill-rule="evenodd" clip-rule="evenodd" d="M3 7.99862L7.493 12.4986L12 7.99862V15.9986H14.969V0.890625L7.493 8.46562L0 0.890625V15.9986H3V7.99862Z" fill="#949494"/>
<path fill-rule="evenodd" clip-rule="evenodd" d="M26.969 16.0475C31.366 16.0475 34.562 12.6465 34.562 8.4925V8.4505C34.562 4.2975 31.406 0.9375 27.01 0.9375C22.614 0.9375 19.418 4.3385 19.418 8.4925V8.5345C19.418 12.6875 22.572 16.0475 26.969 16.0475ZM22.693 8.4505C22.693 5.9465 24.445 3.8995 26.969 3.8995C29.492 3.8995 31.284 5.9875 31.284 8.4925V8.5345C31.284 11.0385 29.535 13.0845 27.01 13.0845C24.486 13.0845 22.693 10.9975 22.693 8.4925V8.4505Z" fill="#949494"/>
<path fill-rule="evenodd" clip-rule="evenodd" d="M65.9629 16.029C70.3599 16.029 73.5549 12.628 73.5549 8.47397V8.43197C73.5549 4.27897 70.3989 0.917969 66.0039 0.917969C61.6069 0.917969 58.4099 4.31997 58.4099 8.47397V8.51597C58.4099 12.669 61.5659 16.029 65.9629 16.029ZM61.6869 8.43197C61.6869 5.92797 63.4369 3.88097 65.9629 3.88097C68.4859 3.88097 70.2779 5.96897 70.2779 8.47397V8.51597C70.2779 11.02 68.5269 13.066 66.0039 13.066C63.4799 13.066 61.6869 10.979 61.6869 8.47397V8.43197Z" fill="#949494"/>
<path fill-rule="evenodd" clip-rule="evenodd" d="M42 7.00063L53.98 16.2226L54 1.00063H51V10.0006L39 0.890625V16.0006H42V7.00063Z" fill="#949494"/>
<path fill-rule="evenodd" clip-rule="evenodd" d="M89.614 8.15721C90.677 7.55633 91.57 6.61366 91.57 4.92089C91.57 3.85018 91.229 3.01338 90.551 2.32881C89.7 1.47083 88.36 1 86.66 1H78V16H86.831C90.188 16 92.398 14.6288 92.398 11.8845C92.398 9.82881 91.336 8.82061 89.614 8.15721ZM85.982 4.0246C87.364 4.0246 88.13 4.27967 88.13 5.26368V5.6105C88.13 6.72355 87.445 7.0492 86 7.0492H81V4.0246H85.982ZM81 13V10H86.8737C88.5164 10 88.999 10.596 89 11.594C88.8825 12.568 88.21 13 86.8737 13H81Z" fill="#949494"/>
<path fill-rule="evenodd" clip-rule="evenodd" d="M100.3 13.998H106.7L107.7 15.998H111L103.5 0.75L96 15.998H99.3L100.3 13.998ZM103.5 6.388L105.4 10.998H101.6L103.5 6.388Z" fill="#949494"/>
<path fill-rule="evenodd" clip-rule="evenodd" d="M145.682 16H150L143.031 9.5L149 1H145.375L138 11V1H135V16L137.877 15.969L141.088 11.686L145.682 16Z" fill="#949494"/>
<path fill-rule="evenodd" clip-rule="evenodd" d="M118 7.00063L129.98 16.2226L130 1.00063H127V10.0006L115 0.890625V16.0006H118V7.00063Z" fill="#949494"/>
<path fill-rule="evenodd" clip-rule="evenodd" d="M0 22H150V25H0V22Z" fill="#949494"/>
</svg>
