<svg width="153" height="33" viewBox="0 0 153 33" fill="none" xmlns="http://www.w3.org/2000/svg">
<rect width="152.846" height="32.0547" fill="black" fill-opacity="0"/>
<rect width="152.846" height="32.0547" fill="black" fill-opacity="0"/>
<path d="M139.45 6.86C136.224 7.11658 133.222 8.60806 131.07 11.0236C128.917 13.4391 127.779 16.5922 127.894 19.8259C128.009 23.0595 129.367 26.1241 131.685 28.3809C134.004 30.6378 137.104 31.9127 140.34 31.94C142.93 31.94 146.42 30.59 147.99 27.89V31.6H152.83V19.68C152.919 17.9244 152.63 16.1701 151.981 14.5362C151.333 12.9024 150.34 11.4273 149.071 10.2111C147.801 8.99494 146.285 8.06619 144.625 7.48796C142.965 6.90973 141.2 6.69556 139.45 6.86V6.86ZM147.65 19.68C147.61 20.6728 147.364 21.6464 146.925 22.5381C146.487 23.4297 145.867 24.2198 145.105 24.8575C144.343 25.4951 143.456 25.9662 142.501 26.2405C141.546 26.5148 140.544 26.5861 139.56 26.45C137.968 26.2266 136.492 25.491 135.356 24.3544C134.219 23.2177 133.483 21.7419 133.26 20.15C133.129 19.1801 133.197 18.1937 133.458 17.2507C133.72 16.3077 134.171 15.4276 134.783 14.6638C135.394 13.9 136.155 13.2683 137.018 12.8072C137.881 12.346 138.829 12.0649 139.804 11.9809C140.779 11.8969 141.761 12.0117 142.691 12.3184C143.62 12.6251 144.478 13.1173 145.211 13.7651C145.945 14.413 146.539 15.203 146.958 16.0874C147.377 16.9718 147.613 17.932 147.65 18.91V19.7V19.68ZM112.91 6.86C110.645 6.92558 108.44 7.60057 106.527 8.8139C104.613 10.0272 103.063 11.734 102.038 13.7545C101.013 15.775 100.552 18.0345 100.703 20.2951C100.854 22.5557 101.612 24.7337 102.896 26.5998C104.181 28.4659 105.945 29.9511 108.003 30.899C110.061 31.8469 112.336 32.2224 114.589 31.9859C116.843 31.7495 118.991 30.9099 120.807 29.5555C122.623 28.2012 124.04 26.3822 124.91 24.29L120.07 22.83C119.497 24.0677 118.592 25.1222 117.456 25.8761C116.32 26.6301 114.996 27.054 113.633 27.1006C112.27 27.1473 110.921 26.8148 109.736 26.1403C108.551 25.4658 107.576 24.4756 106.92 23.28L125.7 18.11C125.16 13.16 120.89 6.64 112.91 6.86V6.86ZM105.91 18.78C105.935 17.2677 106.423 15.7995 107.308 14.5729C108.193 13.3464 109.433 12.4205 110.86 11.92C112.437 11.2786 114.196 11.2457 115.796 11.8277C117.396 12.4097 118.723 13.5652 119.52 15.07L105.91 18.78ZM71.6299 11.92V6.75C66.9099 6.75 65.3399 9.11 64.5499 10.35V7.53H59.1499V31.45H64.6599V19.68C64.6599 14.28 67.8099 12.15 71.6299 11.92Z" fill="#949494"/>
<path d="M22.04 21.9298L5.62 2.58984H0V31.4898H5.85V12.1398L22.49 31.5998H27.55V2.58984H22.04V21.9298Z" fill="#949494"/>
<path d="M97.3901 0H92.21V9.45C90.98 7.87 87.15 6.52 83.89 6.86C80.6639 7.11688 77.6614 8.60917 75.5086 11.0257C73.3559 13.4423 72.219 16.5965 72.335 19.8308C72.4511 23.0651 73.8111 26.1298 76.1316 28.3858C78.452 30.6418 81.5538 31.915 84.7901 31.94C87.4901 31.94 91.2001 30.7 92.4401 28.34V31.45H97.2701V19.12L97.3901 0V0ZM92 19.68C91.9609 20.6747 91.7136 21.6502 91.274 22.5435C90.8345 23.4367 90.2126 24.2278 89.4483 24.8658C88.6841 25.5038 87.7945 25.9744 86.8372 26.2473C85.8798 26.5201 84.8758 26.5892 83.89 26.45C82.2982 26.2266 80.8223 25.491 79.6857 24.3544C78.549 23.2177 77.8134 21.7419 77.59 20.15C77.423 18.2391 78.0218 16.3401 79.2549 14.8708C80.4879 13.4014 82.2542 12.4821 84.1651 12.315C86.0759 12.1479 87.9749 12.7468 89.4443 13.9798C90.9136 15.2129 91.833 16.9791 92 18.89V19.68ZM43.4101 6.75C40.9172 6.74802 38.4797 7.48557 36.4061 8.86932C34.3325 10.2531 32.716 12.2208 31.7611 14.5236C30.8062 16.8263 30.5558 19.3606 31.0417 21.8057C31.5275 24.2508 32.7278 26.4968 34.4905 28.2595C36.2533 30.0223 38.4993 31.2225 40.9444 31.7084C43.3895 32.1942 45.9237 31.9439 48.2265 30.989C50.5292 30.0341 52.497 28.4175 53.8807 26.3439C55.2645 24.2704 56.002 21.8329 56 19.34C55.9688 16.0106 54.6323 12.8264 52.2779 10.4721C49.9236 8.11778 46.7394 6.78129 43.4101 6.75V6.75ZM43.4101 26.54C41.986 26.54 40.594 26.1177 39.4099 25.3266C38.2259 24.5354 37.3031 23.4109 36.7581 22.0953C36.2132 20.7797 36.0706 19.332 36.3484 17.9353C36.6262 16.5387 37.3119 15.2558 38.3189 14.2488C39.3258 13.2419 40.6087 12.5562 42.0054 12.2783C43.4021 12.0005 44.8497 12.1431 46.1654 12.6881C47.481 13.233 48.6055 14.1559 49.3966 15.3399C50.1878 16.5239 50.6101 17.916 50.6101 19.34C50.597 21.2455 49.8342 23.0693 48.4867 24.4167C47.1393 25.7641 45.3156 26.5269 43.4101 26.54Z" fill="#949494"/>
</svg>
