<svg width="226" height="38" viewBox="0 0 226 38" fill="none" xmlns="http://www.w3.org/2000/svg">
<rect width="226" height="37" fill="black" fill-opacity="0"/>
<path d="M42.3746 26.1939C40.9536 26.1834 39.5431 25.9504 38.194 25.5033C37.9446 25.4152 37.8419 25.3123 37.8419 25.1213C37.8353 25.0579 37.8353 24.9938 37.8419 24.9303L38.1206 24.0341C38.1206 23.8725 38.2527 23.7844 38.414 23.7844C38.5066 23.7734 38.6001 23.7734 38.6927 23.7844C39.8808 24.2543 41.1417 24.5129 42.4186 24.5484C44.5016 24.5484 46.5846 23.5934 46.5846 21.1839C46.5846 19.509 45.4257 18.5246 43.9588 17.6872L40.5997 15.7919C39.7809 15.4178 39.0808 14.825 38.5762 14.0786C38.0716 13.3322 37.782 12.461 37.7393 11.5606C37.7393 8.62222 40.4383 6.99141 43.1814 6.99141C44.5416 6.95731 45.8944 7.2023 47.1566 7.71132C47.3913 7.82885 47.5087 7.9317 47.5087 8.12269C47.521 8.18577 47.521 8.25062 47.5087 8.31369L47.23 9.07767C47.2103 9.14742 47.1678 9.20852 47.1092 9.25116C47.0507 9.29379 46.9796 9.31548 46.9073 9.31275H46.6726C45.6092 8.85372 44.4705 8.59474 43.3134 8.54876C42.3982 8.52208 41.4985 8.78983 40.7464 9.31275C40.4289 9.53539 40.168 9.82946 39.9846 10.1714C39.8012 10.5133 39.7004 10.8935 39.6902 11.2815C39.7142 11.9757 39.9392 12.648 40.3376 13.2166C40.736 13.7853 41.2908 14.2257 41.9345 14.4843L44.7509 16.0858C46.8633 17.2758 48.4768 18.5687 48.4768 21.1251C48.4768 24.563 45.5431 26.1792 42.3893 26.1792" fill="#949494"/>
<path d="M42.3746 26.1939C40.9536 26.1834 39.5431 25.9504 38.194 25.5033C37.9446 25.4152 37.8419 25.3123 37.8419 25.1213C37.8353 25.0579 37.8353 24.9938 37.8419 24.9303L38.1206 24.0341C38.1206 23.8725 38.2527 23.7844 38.414 23.7844C38.5066 23.7734 38.6001 23.7734 38.6927 23.7844C39.8808 24.2543 41.1417 24.5129 42.4186 24.5484C44.5016 24.5484 46.5846 23.5934 46.5846 21.1839C46.5846 19.509 45.4257 18.5246 43.9588 17.6872L40.5997 15.7919C39.7809 15.4178 39.0808 14.825 38.5762 14.0786C38.0716 13.3322 37.782 12.461 37.7393 11.5606C37.7393 8.62222 40.4383 6.99141 43.1814 6.99141C44.5416 6.95731 45.8944 7.2023 47.1566 7.71132C47.3913 7.82885 47.5087 7.9317 47.5087 8.1227C47.521 8.18577 47.521 8.25062 47.5087 8.31369L47.23 9.07767C47.2103 9.14742 47.1678 9.20852 47.1092 9.25116C47.0507 9.29379 46.9796 9.31548 46.9073 9.31275H46.6726C45.6092 8.85372 44.4705 8.59474 43.3134 8.54876C42.3982 8.52208 41.4985 8.78983 40.7464 9.31275C40.4289 9.53539 40.168 9.82946 39.9846 10.1714C39.8012 10.5133 39.7004 10.8935 39.6902 11.2815C39.7142 11.9757 39.9392 12.648 40.3376 13.2166C40.736 13.7853 41.2908 14.2257 41.9345 14.4843L44.7509 16.0858C46.8633 17.2758 48.4768 18.5687 48.4768 21.1251C48.4622 24.5777 45.5724 26.1939 42.3746 26.1939V26.1939ZM56.8234 26.2086C56.1161 26.2214 55.4148 26.0765 54.7704 25.7843C54.1259 25.492 53.5545 25.0598 53.0975 24.519V31.3508C53.0975 31.7034 52.8775 31.7768 52.5841 31.7768H51.792C51.4986 31.7768 51.3666 31.6152 51.3666 31.292V13.309C51.3666 12.9711 51.4986 12.8976 51.792 12.8976H52.4667C52.8481 12.8976 53.0095 13.0004 53.0095 13.3824V14.4403C53.5385 13.8711 54.1786 13.417 54.8903 13.1061C55.6019 12.7952 56.3697 12.6342 57.1461 12.6331C60.3146 12.6331 62.6469 14.881 62.6469 19.3474C62.6469 23.0057 60.6373 26.2086 56.7794 26.2086H56.8234ZM56.8674 13.9848C56.1222 14.0073 55.3918 14.1987 54.7312 14.5448C54.0706 14.8909 53.4969 15.3826 53.0535 15.9829V22.6237C53.4081 23.2809 53.9302 23.8324 54.5666 24.2221C55.2029 24.6117 55.931 24.8257 56.6767 24.8422C59.3758 24.8422 60.8426 22.5943 60.8426 19.3474C60.8426 15.6597 59.1557 13.9848 56.8674 13.9848" fill="#949494"/>
<path d="M56.8235 26.2167C56.1162 26.2296 55.4149 26.0847 54.7705 25.7924C54.126 25.5002 53.5546 25.068 53.0976 24.5271V31.3589C53.0976 31.7115 52.8776 31.785 52.5842 31.785H51.7921C51.4987 31.785 51.3667 31.6234 51.3667 31.3002V13.3171C51.3667 12.9792 51.4987 12.9058 51.7921 12.9058H52.4669C52.8482 12.9058 53.0096 13.0086 53.0096 13.3906V14.4484C53.5386 13.8793 54.1788 13.4251 54.8904 13.1143C55.602 12.8034 56.3698 12.6424 57.1462 12.6413C60.3147 12.6413 62.647 14.8892 62.647 19.3556C62.6764 23.0139 60.6667 26.2167 56.8235 26.2167ZM56.9115 13.993C56.1663 14.0154 55.4359 14.2069 54.7753 14.553C54.1147 14.8991 53.5411 15.3908 53.0976 15.9911V22.6319C53.4523 23.2891 53.9743 23.8406 54.6107 24.2302C55.2471 24.6199 55.9751 24.8339 56.7208 24.8504C59.4199 24.8504 60.8868 22.6025 60.8868 19.3556C60.8868 15.6679 59.1998 13.993 56.9115 13.993V13.993ZM76.7584 25.967H75.7316C74.6754 25.967 74.2647 25.0707 74.2647 24.0129V23.6603C73.8644 24.4215 73.2657 25.0598 72.5322 25.5073C71.7986 25.9549 70.9577 26.1949 70.0988 26.202C66.4169 26.202 64.818 23.0139 64.818 19.6494C64.818 15.2418 67.385 12.6413 70.5242 12.6413C71.2306 12.6293 71.9308 12.7761 72.5731 13.0711C73.2154 13.366 73.7834 13.8016 74.2354 14.3456V13.3318C74.2354 13.0086 74.4261 12.9058 74.7195 12.9058H75.5262C75.8343 12.9058 75.937 13.0674 75.937 13.3906V22.8963C75.899 23.3885 75.9336 23.8835 76.0396 24.3655C76.0885 24.4731 76.1703 24.5624 76.2731 24.6205C76.3759 24.6786 76.4945 24.7025 76.6117 24.6888H76.8024C77.0225 24.6888 77.0958 24.6888 77.0958 24.9826V25.6584C77.0958 25.8788 77.0225 25.9376 76.7731 25.9376L76.7584 25.967ZM74.206 16.2408C73.881 15.5615 73.3715 14.9877 72.7359 14.5849C72.1003 14.1822 71.3643 13.9669 70.6122 13.9636C68.2798 13.9636 66.5783 16.0499 66.5783 19.5172C66.5783 22.9845 68.2798 24.7181 70.2015 24.7181C71.1248 24.6523 72.0052 24.3021 72.7221 23.7155C73.439 23.129 73.9573 22.3349 74.206 21.4418V16.2408Z" fill="#949494"/>
<path d="M76.7583 25.967H75.7315C74.6753 25.967 74.2646 25.0707 74.2646 24.0129V23.6603C73.8643 24.4215 73.2656 25.0598 72.532 25.5073C71.7985 25.9549 70.9575 26.1949 70.0986 26.202C66.4168 26.202 64.8179 23.0139 64.8179 19.6494C64.8179 15.2418 67.3849 12.6413 70.524 12.6413C71.2305 12.6293 71.9307 12.7761 72.573 13.0711C73.2153 13.366 73.7833 13.8016 74.2353 14.3456V13.3318C74.2353 13.0086 74.4259 12.9058 74.7193 12.9058H75.5261C75.8342 12.9058 75.9368 13.0674 75.9368 13.3906V22.8963C75.8988 23.3885 75.9334 23.8835 76.0395 24.3655C76.0884 24.4731 76.1702 24.5624 76.273 24.6205C76.3758 24.6786 76.4944 24.7025 76.6116 24.6888H76.8023C77.0223 24.6888 77.0957 24.6888 77.0957 24.9826V25.6584C77.081 25.9082 77.0077 25.967 76.7583 25.967V25.967ZM74.1912 16.2702C73.8662 15.5909 73.3567 15.0171 72.7211 14.6143C72.0855 14.2116 71.3495 13.9962 70.5974 13.993C68.265 13.993 66.5635 16.0792 66.5635 19.5466C66.5635 23.0139 68.265 24.7475 70.1867 24.7475C71.11 24.6816 71.9904 24.3314 72.7073 23.7449C73.4242 23.1584 73.9425 22.3642 74.1912 21.4712V16.2702ZM85.6769 13.9048C85.6706 13.9611 85.6454 14.0136 85.6054 14.0536C85.5655 14.0936 85.5131 14.1189 85.4569 14.1252C85.173 14.0595 84.8828 14.025 84.5914 14.0224C84.0215 14.0826 83.4741 14.2779 82.9946 14.5922C82.515 14.9064 82.1171 15.3306 81.8337 15.8295V25.4821C81.8337 25.8053 81.7017 25.967 81.4083 25.967H80.5428C80.2348 25.967 80.1028 25.8053 80.1028 25.4821V13.3906C80.1028 13.0674 80.2348 12.9058 80.5428 12.9058H81.379C81.6723 12.9058 81.8044 13.0674 81.8044 13.3906V14.3456C82.14 13.8414 82.5902 13.4241 83.118 13.1279C83.6458 12.8316 84.2362 12.6649 84.8408 12.6413C85.1017 12.6399 85.3622 12.6645 85.6183 12.7148C85.6491 12.7166 85.6793 12.7246 85.707 12.7382C85.7348 12.7517 85.7596 12.7707 85.7801 12.7939C85.8005 12.8171 85.8162 12.8441 85.8262 12.8734C85.8362 12.9027 85.8403 12.9336 85.8383 12.9645L85.6769 13.9048Z" fill="#949494"/>
<path d="M85.6772 13.9042C85.6709 13.9605 85.6457 14.0129 85.6057 14.053C85.5657 14.093 85.5133 14.1183 85.4571 14.1246C85.1732 14.0589 84.883 14.0244 84.5917 14.0217C84.0218 14.082 83.4744 14.2773 82.9948 14.5916C82.5153 14.9058 82.1173 15.3299 81.8339 15.8288V25.4815C81.8339 25.8047 81.7019 25.9663 81.4086 25.9663H80.5431C80.235 25.9663 80.103 25.8047 80.103 25.4815V13.39C80.103 13.0668 80.235 12.9051 80.5431 12.9051H81.3792C81.6726 12.9051 81.8046 13.0668 81.8046 13.39V14.345C82.1403 13.8408 82.5905 13.4235 83.1183 13.1272C83.6461 12.831 84.2365 12.6642 84.8411 12.6407C85.102 12.6393 85.3624 12.6639 85.6185 12.7141C85.6493 12.716 85.6795 12.724 85.7073 12.7375C85.735 12.7511 85.7599 12.7701 85.7803 12.7933C85.8007 12.8165 85.8164 12.8435 85.8264 12.8728C85.8364 12.9021 85.8405 12.933 85.8385 12.9639L85.6772 13.9042ZM97.2069 19.4872H88.6403C88.6403 22.4256 90.1072 24.7469 93.1876 24.7469C94.3394 24.7381 95.4809 24.5294 96.5614 24.1298C96.6247 24.1208 96.6889 24.1208 96.7521 24.1298C96.8174 24.1294 96.8804 24.1532 96.9292 24.1966C96.9779 24.24 97.0089 24.3 97.0162 24.3649L97.1629 24.9967C97.1764 25.0695 97.1764 25.1442 97.1629 25.217C97.1629 25.3493 97.0748 25.4227 96.8841 25.5109C95.6502 26.0158 94.3299 26.2753 92.9969 26.2749C88.8456 26.2749 86.8213 23.4687 86.8213 19.4725C86.8213 15.6966 89.1243 12.6994 92.9089 12.6994C96.1067 12.6994 97.9403 15.1383 97.9403 18.2971V18.8113C97.9403 19.4137 97.8523 19.5459 97.1775 19.5459L97.2069 19.4872ZM92.7769 14.0217C91.6658 14.0772 90.617 14.552 89.8414 15.3507C89.0657 16.1493 88.6209 17.2126 88.5963 18.3265H96.1067C96.1213 18.1456 96.1213 17.9638 96.1067 17.7829C96.1678 17.308 96.1262 16.8256 95.9846 16.3683C95.843 15.911 95.6047 15.4896 95.286 15.1328C94.9673 14.776 94.5756 14.492 94.1376 14.3003C93.6996 14.1086 93.2255 14.0136 92.7475 14.0217" fill="#949494"/>
<path d="M97.2066 19.4841H88.64C88.64 22.4225 90.1069 24.7438 93.1873 24.7438C94.3391 24.735 95.4806 24.5263 96.5611 24.1267C96.6244 24.1177 96.6886 24.1177 96.7518 24.1267C96.8171 24.1263 96.8801 24.1501 96.9289 24.1935C96.9776 24.2369 97.0086 24.2969 97.0159 24.3618L97.1626 24.9936C97.1761 25.0664 97.1761 25.1411 97.1626 25.2139C97.1626 25.3462 97.0745 25.4196 96.8838 25.5078C95.6499 26.0127 94.3296 26.2722 92.9966 26.2718C88.8453 26.2718 86.821 23.4656 86.821 19.4694C86.821 15.6935 89.124 12.6964 92.9086 12.6964C96.1064 12.6964 97.94 15.1352 97.94 18.294V18.8082C97.9693 19.3518 97.8813 19.4841 97.2066 19.4841V19.4841ZM92.8059 13.9599C91.6949 14.0153 90.646 14.4901 89.8704 15.2888C89.0947 16.0875 88.6499 17.1507 88.6253 18.2646H96.1357C96.1503 18.0837 96.1503 17.9019 96.1357 17.721C96.1958 17.2548 96.1567 16.7811 96.0211 16.3311C95.8855 15.881 95.6564 15.4648 95.3489 15.1096C95.0414 14.7545 94.6624 14.4685 94.2368 14.2703C93.8112 14.0722 93.3486 13.9664 92.8793 13.9599H92.8059ZM106.111 26.1983C105.402 26.1845 104.704 26.0217 104.062 25.7205C103.42 25.4193 102.849 24.9865 102.385 24.45V25.4784C102.385 25.8457 102.253 25.9632 101.871 25.9632H101.152C100.844 25.9632 100.712 25.8751 100.712 25.5519V7.37785C100.712 7.05463 100.712 6.93709 101.064 6.89301L102.018 6.74609H102.121C102.341 6.74609 102.443 6.9077 102.443 7.18685V14.3419C102.979 13.7994 103.616 13.3683 104.318 13.0733C105.021 12.7783 105.774 12.6252 106.536 12.6229C110.379 12.6229 111.993 15.7523 111.993 19.3812C111.993 23.0101 110.13 26.1983 106.125 26.1983H106.111ZM106.287 14.0186C105.559 14.0612 104.847 14.248 104.193 14.5683C103.538 14.8886 102.953 15.336 102.473 15.8845V22.7604C102.853 23.3756 103.378 23.8877 104.002 24.2515C104.626 24.6154 105.33 24.8198 106.052 24.8466C108.986 24.8466 110.232 22.4078 110.232 19.5134C110.232 16.2077 109.03 14.0186 106.287 14.0186Z" fill="#949494"/>
<path d="M106.111 26.1983C105.402 26.1845 104.704 26.0217 104.062 25.7205C103.421 25.4193 102.849 24.9865 102.385 24.45V25.4784C102.385 25.8457 102.253 25.9632 101.871 25.9632H101.153C100.845 25.9632 100.713 25.8751 100.713 25.5519V7.37785C100.713 7.05463 100.713 6.93709 101.065 6.89301L102.018 6.74609H102.121C102.341 6.74609 102.444 6.9077 102.444 7.18685V14.3419C102.979 13.7994 103.616 13.3683 104.319 13.0733C105.021 12.7783 105.775 12.6252 106.536 12.6229C110.379 12.6229 111.993 15.7523 111.993 19.3812C111.993 23.0101 110.145 26.1983 106.111 26.1983V26.1983ZM106.272 14.0186C105.545 14.0611 104.833 14.248 104.178 14.5683C103.524 14.8886 102.939 15.336 102.458 15.8845V22.7604C102.838 23.3756 103.363 23.8877 103.988 24.2515C104.612 24.6154 105.316 24.8198 106.037 24.8466C108.971 24.8466 110.218 22.4078 110.218 19.5134C110.218 16.2077 109.015 14.0186 106.272 14.0186V14.0186ZM126.09 25.9632H125.063C124.007 25.9632 123.596 25.067 123.596 24.0092V23.6566C123.192 24.4179 122.59 25.0559 121.855 25.5032C121.119 25.9506 120.276 26.1907 119.415 26.1983C115.748 26.1983 114.149 23.0101 114.149 19.6457C114.149 15.2381 116.716 12.6376 119.855 12.6376C120.562 12.6255 121.262 12.7724 121.904 13.0674C122.547 13.3623 123.115 13.7978 123.567 14.3419V13.3281C123.567 13.0049 123.743 12.902 124.051 12.902H124.858C125.151 12.902 125.268 13.0637 125.268 13.3869V22.8926C125.23 23.3847 125.265 23.8798 125.371 24.3618C125.418 24.4709 125.499 24.5616 125.603 24.6199C125.706 24.6783 125.825 24.7012 125.943 24.685H126.09C126.31 24.685 126.383 24.685 126.383 24.9789V25.6547C126.383 25.8751 126.383 25.9338 126.06 25.9338L126.09 25.9632ZM123.493 16.2371C123.167 15.5589 122.657 14.986 122.022 14.5834C121.386 14.1809 120.651 13.9648 119.899 13.9599C117.567 13.9599 115.866 16.0461 115.866 19.5134C115.866 22.9808 117.567 24.7144 119.489 24.7144C120.412 24.6485 121.292 24.2983 122.009 23.7118C122.726 23.1253 123.245 22.3311 123.493 21.4381V16.2371Z" fill="#949494"/>
<path d="M126.09 25.9614H125.063C124.007 25.9614 123.596 25.0652 123.596 24.0074V23.6548C123.192 24.4161 122.59 25.0541 121.855 25.5014C121.119 25.9488 120.276 26.1889 119.415 26.1965C115.748 26.1965 114.149 23.0083 114.149 19.6439C114.149 15.2363 116.716 12.6358 119.855 12.6358C120.562 12.6237 121.262 12.7706 121.904 13.0656C122.547 13.3605 123.115 13.796 123.567 14.3401V13.3263C123.567 13.0031 123.743 12.9002 124.051 12.9002H124.857C125.151 12.9002 125.268 13.0619 125.268 13.3851V22.8908C125.23 23.3829 125.265 23.878 125.371 24.36C125.418 24.4691 125.499 24.5598 125.603 24.6181C125.706 24.6765 125.825 24.6994 125.943 24.6832H126.09C126.31 24.6832 126.383 24.6832 126.383 24.9771V25.6529C126.427 25.9027 126.354 25.9614 126.09 25.9614V25.9614ZM123.523 16.2647C123.196 15.5865 122.686 15.0136 122.051 14.611C121.416 14.2085 120.68 13.9924 119.929 13.9875C117.596 13.9875 115.895 16.0737 115.895 19.541C115.895 23.0083 117.596 24.742 119.518 24.742C120.441 24.6761 121.322 24.3259 122.039 23.7394C122.755 23.1529 123.274 22.3587 123.523 21.4657V16.2647ZM139.057 25.9614H138.191C137.898 25.9614 137.766 25.7998 137.766 25.4766V17.7486C137.766 15.5889 137.253 13.9875 134.832 13.9875C133.32 14.0856 131.887 14.6971 130.769 15.7211V25.4766C130.769 25.7998 130.637 25.9614 130.344 25.9614H129.478C129.185 25.9614 129.038 25.7998 129.038 25.4766V13.3851C129.038 13.0619 129.185 12.9002 129.478 12.9002H130.314C130.608 12.9002 130.74 13.0619 130.74 13.3851V14.3107C131.997 13.2268 133.599 12.6277 135.258 12.6211C138.426 12.6211 139.541 14.5457 139.541 17.4988V25.4766C139.541 25.7998 139.409 25.9614 139.101 25.9614" fill="#949494"/>
<path d="M139.057 25.9632H138.191C137.898 25.9632 137.766 25.8016 137.766 25.4784V17.7504C137.766 15.5907 137.252 13.9893 134.832 13.9893C133.32 14.0874 131.887 14.6989 130.769 15.7229V25.4784C130.769 25.8016 130.637 25.9632 130.343 25.9632H129.478C129.185 25.9632 129.038 25.8016 129.038 25.4784V13.3869C129.038 13.0637 129.185 12.902 129.478 12.902H130.314C130.607 12.902 130.739 13.0637 130.739 13.3869V14.3125C131.997 13.2286 133.599 12.6295 135.257 12.6229C138.426 12.6229 139.541 14.5475 139.541 17.5006V25.4784C139.497 25.8016 139.365 25.9632 139.057 25.9632V25.9632ZM151.745 25.9632H150.748C150.598 25.9724 150.449 25.9419 150.315 25.8749C150.181 25.8078 150.067 25.7065 149.985 25.5812L145.584 19.2637L144.807 20.0864V25.4784C144.807 25.8016 144.675 25.9632 144.367 25.9632H143.501C143.208 25.9632 143.076 25.8016 143.076 25.4784V7.37785C143.076 7.05463 143.076 6.93709 143.428 6.89301L144.367 6.74609H144.484C144.704 6.74609 144.807 6.9077 144.807 7.18685V18.1324L149.369 13.1665C149.423 13.087 149.495 13.0214 149.579 12.9754C149.663 12.9294 149.757 12.9043 149.853 12.902H151.217C151.32 12.902 151.408 12.902 151.408 13.0343C151.408 13.1665 151.408 13.1371 151.29 13.2253L146.772 18.103L151.892 25.449C151.973 25.5489 152.02 25.6728 152.024 25.8016C152.024 25.9339 151.921 26.022 151.642 26.022" fill="#949494"/>
<path d="M151.745 25.9632H150.748C150.598 25.9724 150.449 25.9419 150.315 25.8749C150.181 25.8078 150.067 25.7065 149.985 25.5812L145.584 19.2637L144.807 20.0864V25.4784C144.807 25.8016 144.675 25.9632 144.367 25.9632H143.501C143.208 25.9632 143.076 25.8016 143.076 25.4784V7.37785C143.076 7.05463 143.076 6.93709 143.428 6.89301L144.367 6.74609H144.484C144.704 6.74609 144.807 6.9077 144.807 7.18685V18.1324L149.369 13.1665C149.423 13.087 149.495 13.0214 149.579 12.9754C149.663 12.9294 149.757 12.9043 149.853 12.902H151.217C151.32 12.902 151.408 12.902 151.408 13.0343C151.408 13.1665 151.408 13.1371 151.29 13.2253L146.772 18.103L151.892 25.449C151.973 25.5489 152.02 25.6728 152.024 25.8016C152.127 25.8751 152.024 25.9632 151.745 25.9632V25.9632ZM163.348 19.4841H154.767C154.767 22.4225 156.234 24.7438 159.314 24.7438C160.471 24.735 161.617 24.5262 162.703 24.1267C162.766 24.1158 162.83 24.1158 162.893 24.1267C162.958 24.1293 163.019 24.1542 163.067 24.197C163.116 24.2399 163.147 24.2981 163.158 24.3618L163.29 24.9936C163.303 25.0664 163.303 25.1411 163.29 25.2139C163.29 25.3462 163.29 25.4196 163.026 25.5078C161.787 26.0146 160.462 26.2741 159.124 26.2718C154.987 26.2718 152.963 23.4656 152.963 19.4694C152.963 15.6935 155.251 12.6964 159.05 12.6964C162.233 12.6964 164.082 15.1352 164.082 18.294V18.8082C164.082 19.4106 163.994 19.5428 163.319 19.5428L163.348 19.4841ZM158.918 14.0186C157.805 14.0705 156.752 14.5437 155.973 15.3427C155.195 16.1418 154.748 17.2071 154.723 18.3234H162.248C162.263 18.1425 162.263 17.9607 162.248 17.7798C162.309 17.3049 162.268 16.8225 162.126 16.3652C161.984 15.9079 161.746 15.4865 161.427 15.1297C161.109 14.7729 160.717 14.4889 160.279 14.2972C159.841 14.1055 159.367 14.0105 158.889 14.0186" fill="#949494"/>
<path d="M163.348 19.4823H154.767C154.767 22.4207 156.234 24.742 159.314 24.742C160.471 24.7332 161.617 24.5244 162.703 24.1249C162.766 24.114 162.831 24.114 162.894 24.1249C162.958 24.1275 163.019 24.1524 163.068 24.1952C163.116 24.2381 163.148 24.2963 163.158 24.36L163.29 24.9918C163.303 25.0646 163.303 25.1393 163.29 25.2121C163.29 25.3444 163.29 25.4178 163.026 25.506C161.787 26.0128 160.462 26.2723 159.124 26.27C154.987 26.27 152.963 23.4638 152.963 19.4676C152.963 15.6917 155.251 12.6946 159.05 12.6946C162.234 12.6946 164.082 15.1334 164.082 18.2922V18.8064C164.111 19.35 164.023 19.4823 163.348 19.4823V19.4823ZM158.948 13.9581C157.834 14.0099 156.782 14.4831 156.003 15.2822C155.224 16.0812 154.777 17.1465 154.752 18.2628H162.278C162.292 18.0819 162.292 17.9001 162.278 17.7192C162.338 17.253 162.299 16.7793 162.163 16.3293C162.027 15.8792 161.798 15.463 161.491 15.1078C161.183 14.7527 160.804 14.4667 160.379 14.2685C159.953 14.0704 159.49 13.9646 159.021 13.9581H158.948ZM176.961 25.9614H176.096C175.788 25.9614 175.656 25.7998 175.656 25.4766V17.7486C175.656 15.5889 175.142 13.9875 172.648 13.9875C171.151 14.0931 169.734 14.7043 168.629 15.7211V25.4766C168.629 25.7998 168.497 25.9614 168.189 25.9614H167.324C167.03 25.9614 166.898 25.7998 166.898 25.4766V13.3851C166.898 13.0619 167.03 12.9002 167.324 12.9002H168.16C168.468 12.9002 168.6 13.0619 168.6 13.3851V14.3107C169.856 13.2245 171.459 12.6251 173.118 12.6211C176.286 12.6211 177.386 14.5457 177.386 17.4988V25.4766C177.386 25.7998 177.254 25.9614 176.961 25.9614" fill="#949494"/>
<path d="M176.961 25.9652H176.096C175.787 25.9652 175.655 25.8036 175.655 25.4804V17.7524C175.655 15.5927 175.142 13.9912 172.648 13.9912C171.151 14.0969 169.734 14.7081 168.629 15.7249V25.4804C168.629 25.8036 168.497 25.9652 168.189 25.9652H167.324C167.03 25.9652 166.898 25.8036 166.898 25.4804V13.3889C166.898 13.0656 167.03 12.904 167.324 12.904H168.16C168.468 12.904 168.6 13.0656 168.6 13.3889V14.3145C169.856 13.2283 171.459 12.6289 173.118 12.6249C176.286 12.6249 177.386 14.5495 177.386 17.5026V25.4804C177.43 25.8036 177.254 25.9652 176.961 25.9652V25.9652ZM193.669 8.07036C193.676 7.99217 193.676 7.91349 193.669 7.83529C193.669 7.70306 193.669 7.39453 193.097 7.39453H191.821C191.263 7.39453 191.058 7.52676 190.882 8.05567C190.882 8.05567 186.76 20.1472 186.041 22.2775L181.01 7.9969C180.848 7.54145 180.614 7.39453 180.027 7.39453H178.457C178.105 7.39453 177.885 7.57084 177.885 7.87937C177.853 7.99974 177.853 8.12629 177.885 8.24667L184.325 25.7008C184.364 25.8978 184.473 26.0737 184.632 26.1955C184.792 26.3173 184.99 26.3765 185.19 26.3619H186.466C186.652 26.3669 186.835 26.3106 186.986 26.2018C187.137 26.093 187.248 25.9377 187.303 25.7595L193.551 8.12913V8.04098" fill="#949494"/>
<path d="M193.669 8.07036C193.676 7.99217 193.676 7.91349 193.669 7.83529C193.669 7.70306 193.669 7.39453 193.097 7.39453H191.821C191.263 7.39453 191.058 7.52676 190.882 8.05567C190.882 8.05567 186.76 20.1472 186.041 22.2775L181.01 7.9969C180.848 7.54145 180.614 7.39453 180.027 7.39453H178.457C178.105 7.39453 177.885 7.57084 177.885 7.87937C177.854 7.99974 177.854 8.12629 177.885 8.24667L184.325 25.7008C184.364 25.8978 184.473 26.0737 184.633 26.1955C184.792 26.3173 184.99 26.3765 185.19 26.3619H186.467C186.653 26.3669 186.835 26.3106 186.986 26.2018C187.137 26.093 187.248 25.9377 187.303 25.7595L193.552 8.12913L193.669 8.07036ZM199.243 12.4339C195.444 12.4339 192.804 15.2988 192.804 19.4126C192.804 23.8202 195.239 26.3766 199.331 26.3766C200.768 26.3879 202.193 26.1184 203.526 25.5832C203.746 25.4657 203.937 25.3482 203.937 25.0984C203.954 25.0309 203.954 24.9602 203.937 24.8927L203.629 23.879C203.608 23.7766 203.55 23.6855 203.466 23.6232C203.382 23.5609 203.278 23.5317 203.174 23.541C203.092 23.5271 203.008 23.5271 202.925 23.541H202.852C201.827 23.9156 200.744 24.1046 199.654 24.0993C199.095 24.1126 198.54 24.0095 198.023 23.7964C197.506 23.5834 197.039 23.2651 196.651 22.8617C196.264 22.4584 195.964 21.9788 195.772 21.4533C195.579 20.9278 195.497 20.368 195.532 19.8093H203.688C204.451 19.8093 204.641 19.633 204.641 18.9131V18.4429C204.733 16.7706 204.164 15.1293 203.057 13.8737C202.559 13.384 201.967 13.0012 201.316 12.7486C200.665 12.496 199.97 12.3789 199.272 12.4045L199.243 12.4339ZM202.074 18.0168H195.605C195.642 17.0845 196.03 16.2007 196.692 15.5436C197.353 14.8866 198.239 14.5051 199.17 14.4761C199.588 14.4728 200.002 14.5591 200.384 14.7292C200.766 14.8992 201.108 15.1492 201.386 15.4622C201.663 15.7753 201.871 16.1442 201.995 16.5442C202.119 16.9443 202.156 17.3662 202.104 17.7818L202.074 18.0168Z" fill="#949494"/>
<path d="M199.243 12.4316C195.444 12.4316 192.803 15.2966 192.803 19.4103C192.803 23.8179 195.238 26.3743 199.331 26.3743C200.767 26.3857 202.193 26.1162 203.526 25.581C203.746 25.4634 203.937 25.3459 203.937 25.0961C203.954 25.0286 203.954 24.958 203.937 24.8905L203.629 23.8767C203.608 23.7743 203.55 23.6833 203.466 23.621C203.382 23.5587 203.278 23.5294 203.174 23.5388C203.092 23.5248 203.007 23.5248 202.925 23.5388H202.851C201.827 23.9133 200.744 24.1023 199.654 24.0971C199.095 24.1104 198.539 24.0072 198.023 23.7942C197.506 23.5811 197.039 23.2628 196.651 22.8595C196.264 22.4561 195.964 21.9765 195.771 21.451C195.579 20.9256 195.497 20.3657 195.532 19.807H203.687C204.45 19.807 204.641 19.6307 204.641 18.9108V18.4407C204.733 16.7683 204.163 15.127 203.057 13.8715C202.553 13.3834 201.954 13.0039 201.299 12.7562C200.643 12.5086 199.943 12.3981 199.243 12.4316V12.4316ZM202.045 18.044H195.576C195.612 17.1116 196 16.2278 196.662 15.5708C197.323 14.9137 198.209 14.5322 199.14 14.5032C199.558 14.4999 199.972 14.5862 200.354 14.7563C200.737 14.9264 201.078 15.1763 201.356 15.4893C201.634 15.8024 201.842 16.1713 201.965 16.5714C202.089 16.9714 202.126 17.3934 202.074 17.8089L202.045 18.044ZM212.899 18.617L210.802 17.7208C209.599 17.2065 209.203 16.7952 209.203 16.0165C209.203 15.2378 210.039 14.5473 211.286 14.5473C212.241 14.587 213.18 14.8011 214.058 15.179C214.145 15.1968 214.235 15.1968 214.322 15.179C214.427 15.1776 214.527 15.1404 214.607 15.0735C214.688 15.0066 214.742 14.9142 214.762 14.8117L215.056 13.8715C215.067 13.7836 215.067 13.6948 215.056 13.607C215.046 13.5167 215.01 13.4312 214.953 13.3608C214.896 13.2904 214.819 13.2382 214.733 13.2103C213.614 12.6833 212.39 12.4171 211.154 12.4316C208.822 12.4316 206.46 13.5923 206.46 16.1781C206.502 17.0079 206.811 17.8019 207.339 18.4424C207.867 19.0828 208.588 19.5356 209.394 19.7336L211.213 20.4388C212.591 20.9677 213.149 21.5407 213.149 22.4075C213.149 23.5682 212.195 24.3028 210.67 24.3028C209.574 24.2248 208.501 23.9511 207.501 23.4947C207.43 23.4739 207.353 23.4739 207.281 23.4947C207.178 23.5026 207.081 23.5444 207.004 23.6134C206.927 23.6825 206.875 23.775 206.856 23.8767L206.504 24.8464C206.486 24.9187 206.486 24.9944 206.504 25.0668C206.506 25.1761 206.542 25.2821 206.608 25.3693C206.674 25.4565 206.766 25.5204 206.871 25.5516C208.057 26.091 209.338 26.3906 210.641 26.4331C213.677 26.4331 215.731 24.7582 215.731 22.2459C215.685 21.4351 215.391 20.658 214.89 20.0196C214.389 19.3811 213.705 18.912 212.929 18.6757" fill="#949494"/>
<path d="M212.9 18.6177L210.802 17.7215C209.599 17.2073 209.203 16.7959 209.203 16.0172C209.203 15.2385 210.039 14.548 211.286 14.548C212.241 14.5878 213.181 14.8019 214.059 15.1798C214.146 15.1976 214.236 15.1976 214.323 15.1798C214.427 15.1784 214.528 15.1411 214.608 15.0742C214.688 15.0074 214.743 14.9149 214.763 14.8125L215.056 13.8722C215.067 13.7843 215.067 13.6955 215.056 13.6077C215.046 13.5174 215.011 13.4319 214.953 13.3615C214.896 13.2912 214.82 13.2389 214.733 13.211C213.614 12.684 212.391 12.4178 211.154 12.4324C208.822 12.4324 206.46 13.593 206.46 16.1788C206.503 17.0086 206.811 17.8026 207.339 18.4431C207.868 19.0835 208.588 19.5363 209.394 19.7343L211.213 20.4395C212.592 20.9684 213.149 21.5414 213.149 22.4082C213.149 23.5689 212.196 24.3035 210.67 24.3035C209.574 24.2255 208.501 23.9519 207.502 23.4954C207.43 23.4746 207.354 23.4746 207.282 23.4954C207.179 23.5034 207.081 23.5451 207.004 23.6141C206.927 23.6832 206.875 23.7757 206.856 23.8774L206.504 24.8471C206.486 24.9195 206.486 24.9951 206.504 25.0675C206.506 25.1769 206.542 25.2828 206.608 25.37C206.674 25.4572 206.766 25.5211 206.871 25.5523C208.057 26.0917 209.339 26.3913 210.641 26.4338C213.677 26.4338 215.731 24.7589 215.731 22.2466C215.695 21.4219 215.402 20.629 214.895 19.9785C214.388 19.328 213.69 18.8523 212.9 18.6177V18.6177ZM225.999 25.2291L225.794 24.3623C225.768 24.2559 225.708 24.1609 225.623 24.0919C225.539 24.0229 225.434 23.9836 225.324 23.9803C225.247 23.9604 225.167 23.9604 225.09 23.9803C224.556 24.1693 223.997 24.2783 223.432 24.3035C223.166 24.3315 222.897 24.3014 222.644 24.2151C222.391 24.1289 222.159 23.9886 221.965 23.804C221.605 23.2206 221.459 22.5293 221.554 21.8499V14.6508H224.576C224.646 14.6621 224.718 14.6574 224.786 14.637C224.854 14.6165 224.916 14.5809 224.968 14.5329C225.021 14.4848 225.061 14.4255 225.087 14.3594C225.114 14.2933 225.124 14.2222 225.119 14.1513V13.2257C225.119 12.785 224.84 12.7262 224.591 12.7262H221.554V9.53803C221.565 9.45879 221.558 9.37822 221.535 9.30176C221.512 9.2253 221.472 9.15474 221.42 9.09484C221.367 9.03495 221.302 8.98712 221.229 8.95459C221.156 8.92205 221.077 8.90558 220.997 8.90627H220.865L219.545 9.09727C219.458 9.09593 219.373 9.11377 219.294 9.14951C219.215 9.18524 219.145 9.238 219.089 9.30399C219.033 9.36998 218.992 9.44758 218.969 9.53122C218.947 9.61486 218.943 9.70248 218.958 9.78779V12.7262H217.491C217.154 12.7262 216.992 12.9025 216.992 13.2551V14.0926C216.992 14.5333 217.11 14.6508 217.55 14.6508H218.885V21.6002C218.68 22.9115 218.996 24.2508 219.765 25.3319C220.179 25.6994 220.662 25.9809 221.186 26.1599C221.71 26.339 222.264 26.4121 222.816 26.3751C223.7 26.3738 224.576 26.2043 225.398 25.8755C225.779 25.7286 225.867 25.4935 225.867 25.3025V25.2144" fill="#949494"/>
<path d="M225.999 25.2273L225.794 24.3604C225.768 24.2541 225.708 24.1591 225.623 24.0901C225.539 24.021 225.433 23.9818 225.324 23.9785C225.247 23.9586 225.166 23.9586 225.09 23.9785C224.556 24.1675 223.997 24.2764 223.432 24.3017C223.166 24.3297 222.897 24.2995 222.644 24.2133C222.39 24.1271 222.159 23.9868 221.965 23.8022C221.605 23.2188 221.459 22.5275 221.554 21.8481V14.649H224.576C224.646 14.6603 224.718 14.6556 224.786 14.6352C224.854 14.6147 224.916 14.5791 224.968 14.5311C225.021 14.483 225.061 14.4237 225.087 14.3576C225.113 14.2915 225.124 14.2204 225.119 14.1495V13.2239C225.119 12.7831 224.84 12.7244 224.591 12.7244H221.554V9.53621C221.565 9.45698 221.558 9.37641 221.535 9.29995C221.512 9.22349 221.472 9.15293 221.419 9.09303C221.367 9.03314 221.302 8.9853 221.229 8.95277C221.156 8.92024 221.077 8.90376 220.997 8.90446H220.865L219.545 9.09546C219.458 9.09412 219.372 9.11195 219.294 9.14769C219.215 9.18343 219.145 9.23619 219.089 9.30218C219.033 9.36817 218.992 9.44576 218.969 9.5294C218.947 9.61305 218.943 9.70066 218.958 9.78598V12.7244H217.491C217.154 12.7244 216.992 12.9007 216.992 13.2533V14.0907C216.992 14.5315 217.11 14.649 217.55 14.649H218.885V21.5984C218.68 22.9097 218.996 24.249 219.765 25.3301C220.179 25.6976 220.662 25.9791 221.186 26.1581C221.71 26.3372 222.264 26.4103 222.816 26.3733C223.7 26.372 224.576 26.2025 225.398 25.8737C225.779 25.7268 225.867 25.4917 225.867 25.3007C225.867 25.1097 226.014 25.2273 225.999 25.2273V25.2273ZM13.1398 5.17269C13.6601 4.08344 14.2892 3.04973 15.0174 2.08737C21.1196 0.1921 27.5006 -0.851032 30.2877 0.882625C31.193 1.55102 31.8323 2.51931 32.0919 3.61534C32.2124 3.97009 32.3055 4.33355 32.3706 4.70255C32.4352 5.42483 32.3499 6.15269 32.1202 6.8404C31.8905 7.52811 31.5213 8.16082 31.0358 8.69877C26.6351 15.5159 15.8975 21.9216 12.2743 21.9216C10.074 21.9216 7.41897 17.6903 13.1398 5.18738" fill="#949494"/>
<path d="M7.44827 29.2852C7.44827 29.2852 3.48769 17.6345 13.3891 2.58984C9.4579 3.85336 6.14275 5.36663 5.08659 6.40977C2.34352 9.06902 -2.86391 32.9141 1.99147 36.2639C6.84685 39.6137 25.0949 30.6075 28.2193 28.1686C30.1849 26.6994 32.62 17.5316 32.796 10.1856C24.112 20.6904 7.44827 29.2852 7.44827 29.2852" fill="#949494"/>
</svg>
