<svg width="16" height="16" viewBox="0 0 16 16" fill="none" xmlns="http://www.w3.org/2000/svg">
<path d="M4.85885 11.1429C4.83061 10.9535 4.81574 10.7626 4.81435 10.5714C4.81435 8.04686 7.12172 6 9.96851 6C11.2139 6 12.3559 6.392 13.2471 7.044C13.2663 6.88857 13.2759 6.73086 13.2759 6.57143C13.2759 4.05086 10.8477 2 7.86379 2C4.8799 2 2.45165 4.05086 2.45165 6.57143C2.45165 7.43714 2.73308 8.26229 3.26949 8.98571L1 11.1429H4.85885V11.1429Z" fill="#467EFF"/>
<path d="M13.5532 11.9366C13.7657 11.5098 13.8762 11.0436 13.8767 10.5715C13.8767 8.6806 12.1232 7.14288 9.96797 7.14288C7.81274 7.14288 6.0592 8.6806 6.0592 10.5715C6.0592 12.4623 7.81274 14 9.96797 14H15L13.5532 11.9366V11.9366Z" fill="#467EFF"/>
</svg>
