<svg width="16" height="16" viewBox="0 0 16 16" fill="none" xmlns="http://www.w3.org/2000/svg">
<path d="M1.25257 7.23493L2.89268 8.47726L8.62064 5.9315L4.1802 9.43129V13.7266C4.18033 13.8571 4.22056 13.9844 4.29543 14.0912C4.3703 14.198 4.4762 14.2793 4.59879 14.324C4.72137 14.3686 4.85472 14.3745 4.98077 14.3409C5.10682 14.3072 5.21949 14.2357 5.30351 14.1359L7.29557 11.7689L11.4356 14.8722C11.5215 14.9368 11.6223 14.9786 11.7287 14.9937C11.835 15.0088 11.9435 14.9967 12.044 14.9586C12.1444 14.9205 12.2336 14.8575 12.3031 14.7757C12.3727 14.6938 12.4204 14.5956 12.4418 14.4903L14.9876 1.76155C15.0101 1.6491 15.0019 1.53266 14.9637 1.42452C14.9255 1.31638 14.8588 1.22057 14.7706 1.14722C14.6825 1.07386 14.5762 1.02569 14.4629 1.0078C14.3496 0.989901 14.2336 1.00295 14.1271 1.04555L1.39832 6.13707C1.2939 6.1792 1.20253 6.24828 1.13352 6.33725C1.06452 6.42623 1.02035 6.53191 1.00554 6.64353C0.990718 6.75515 1.00578 6.8687 1.04918 6.9726C1.09258 7.07649 1.16276 7.16702 1.25257 7.23493V7.23493Z" fill="#467EFF"/>
</svg>
