<svg xmlns="http://www.w3.org/2000/svg" viewBox="0 0 212 140"><g fill="none"><path fill="#D3D3F4" d="M190.46 114.86c-38.4 0-65.94-42.35-77.1-66.76C101.16 21.43 100.85.6 100.85.6H2.06s-.4 25.54.88 46.31c1.97 31.72 23.35 67.94 61.76 67.94h125.76z"/><path fill="#FFF" d="M15.33 56.37a2.02 2.02 0 1 1 0-4.04h19.6a2.02 2.02 0 1 1 0 4.04h-19.6zm16.7 30.69c-1.11 0-2.02-.58-2.02-1.3 0-.7.91-1.28 2.03-1.28h19.59c1.12 0 2.02.57 2.02 1.29 0 .71-.9 1.29-2.02 1.29h-19.6zM17.97 66.42a2.02 2.02 0 1 1 0-4.04h19.6a2.02 2.02 0 1 1 0 4.04h-19.6zm31.05-9.78a2.02 2.02 0 1 1 0-4.04h6.82a2.02 2.02 0 1 1 0 4.04H49zm2.06 9.78a2.02 2.02 0 1 1 0-4.04h6.82a2.02 2.02 0 1 1 0 4.04h-6.82zM84 56.64a2.02 2.02 0 1 1 0-4.04h21.06a2.02 2.02 0 1 1 0 4.04H84zm-10.71 9.78a2.02 2.02 0 1 1 0-4.04h33.83a2.02 2.02 0 1 1 0 4.04H73.28zm-57.85-21a2.02 2.02 0 1 1 0-4.04h88.59a2.02 2.02 0 1 1 0 4.04h-88.6zm7.31 33.22c-1.11 0-2.02-.78-2.02-1.75s.9-1.75 2.02-1.75h88.6c1.11 0 2.02.78 2.02 1.75s-.91 1.75-2.03 1.75h-88.6z"/><path fill="#7E7FBA" d="M66.59 114.86c15.87 0 25.69-16 25.69-16h118.57s-4.15 16-20.39 16H66.6z"/><path fill="#2E2A25" d="M54.13 26.7l-7.1 2.04c.53 1.34 2 1.79 3.18 1.42a2.36 2.36 0 0 0 1.8-1.8l2.17-.6a4.9 4.9 0 0 1-1.15 2.73 4.83 4.83 0 0 1-8.3-1.84A4.86 4.86 0 0 1 48 22.62a4.75 4.75 0 0 1 3.68.41 5.07 5.07 0 0 1 2.45 3.67zm15.82 0l-7.11 2.04c.53 1.34 2 1.79 3.19 1.42a2.36 2.36 0 0 0 1.8-1.8l2.16-.6a4.9 4.9 0 0 1-1.14 2.73 4.83 4.83 0 0 1-8.3-1.84 4.86 4.86 0 0 1 3.27-6.03 4.76 4.76 0 0 1 3.68.41 5.06 5.06 0 0 1 2.45 3.67zm-.08 5.26l3.4-4.81-3.07-4.32h2.61l1.8 2.8 1.76-2.8h2.61l-3.06 4.32 3.43 4.8h-2.7l-2.04-3.13-2.08 3.14h-2.66zM39.26 27.3a4.77 4.77 0 0 1-4.9 4.85 5.1 5.1 0 0 1-2.7-.73v3.75h-2.2v-7.83c0-2.32 1.7-4.81 4.9-4.81a4.7 4.7 0 0 1 4.9 4.77zm3.51-7.75h.2v12.33h-2.2V19.56h2zM26.3 21.44c-.65 0-1.22-.57-1.22-1.22 0-.7.57-1.23 1.22-1.23a1.23 1.23 0 0 1 0 2.45zm-1.06 10.44v-9.13h2.2v9.13h-2.2zm-4.94-4.65l-.04 4.6h-2.21v-4.52a4.84 4.84 0 0 1 4.98-4.9c.2 0 .37.05.53.05v2.08c-.16-.04-.36-.04-.53-.04a2.73 2.73 0 0 0-2.73 2.73zm-2.74-4.85v2.2H15.3v7.3h-2.2V19.56h2.2v2.82h2.25zm42.46 0v2.2h-2.29v7.3h-2.17V19.56h2.17v2.82h2.29zM37.09 27.3a2.72 2.72 0 0 0-2.7-2.81 2.7 2.7 0 0 0-2.7 2.69v.45a2.7 2.7 0 0 0 5.4-.33zm9.53-.2l4.98-1.43c-.33-.82-1.55-1.71-3.07-1.26-1.55.44-2.08 1.83-1.91 2.69zm15.81 0l4.99-1.43c-.33-.82-1.56-1.71-3.07-1.26-1.55.44-2.08 1.83-1.92 2.69z"/><path fill="#0082CD" d="M89.73 20.1c-.77 0-1.6-.3-2.17-.9a3.05 3.05 0 0 1 0-4.36 3.12 3.12 0 0 1 4.37 0c.54.53.82 1.22.9 1.91H89.9v.5h2.94a3.03 3.03 0 0 1-.9 1.9c-.66.66-1.43.94-2.2.94"/><path fill="#80BD00" d="M84.42 25.6v-2.94h-.5v2.94a3.02 3.02 0 0 1-1.91-.9 3.05 3.05 0 0 1 0-4.36c.61-.61 1.39-.9 2.16-.9.78 0 1.6.29 2.21.9a3.05 3.05 0 0 1 0 4.36c-.53.57-1.23.86-1.96.9"/><path fill="#003865" d="M84.13 14.51a3.1 3.1 0 1 1 2-5.46l-2.08 2.08.37.36 2.08-2.07a3.1 3.1 0 0 1-2.37 5.1"/><ellipse cx="106" cy="132.5" fill="#231950" rx="106" ry="7.5"/></g></svg>