<svg version="1" xmlns="http://www.w3.org/2000/svg" width="346.667" height="346.667" viewBox="0 0 260.000000 260.000000"><path d="M33.5 6.7c.3 1 15.9 28.9 34.5 62l34 60.2-35 60.6c-19.3 33.4-35.5 61.6-36.1 62.7l-1.1 2.1 37.5-.8c20.7-.4 39-1 40.7-1.4 2.7-.5 4.4-2.6 12.7-15.3l9.5-14.7-4.7-8.1-4.7-8-9.7 16.3-9.7 16.2-21.7.3c-11.9.1-21.7 0-21.7-.2s13.7-24.1 30.5-53 31-53.6 31.6-54.9c.9-2-2.9-8.7-31.5-56.1C70.7 44.9 56 20.3 56 19.8c0-.4 10.1-.8 22.4-.8h22.4l9.9 16.9c5.4 9.3 10.1 16.7 10.5 16.3.3-.4 2.5-4 4.8-8.1l4.2-7.3-3.8-6.2c-2.1-3.3-6.6-10.5-10.1-15.9L110 5H71.4C35 5 32.8 5.1 33.5 6.7zM153.2 5.8c.2.5 2.1 3.6 4.3 7l4 6.2h39.8c21.8 0 39.7-.2 39.7-.4s-1.4-3.4-3.1-7L234.8 5h-41c-22.5 0-40.8.4-40.6.8z"/><path d="M23.6 14l-5.8 7.1L48.5 75l30.7 53.9-30.7 52.8-30.7 52.7 4.3 8.8c2.4 4.9 4.7 8.7 5.1 8.6 1.6-.6 71-122.1 70.5-123.7C97.3 126.3 31.3 9 30.1 7.7c-.4-.4-3.4 2.4-6.5 6.3zM143.3 19.2c-3.8 6.8-10.3 18.3-14.4 25.5-4.1 7.3-7.7 13.2-8.2 13-.4-.1-5.3-8.1-11-17.7L99.5 22.5l-19.3-.3c-10.5-.1-19.2.1-19.2.5 0 .5 2.2 4.4 4.8 8.8l4.8 8 9.5.3 9.4.3L105 66.5c8.5 14.6 15.8 26.1 16.2 25.7C122.5 90.9 159 22.1 159 21c0-.6-2-4-4.4-7.6l-4.4-6.5-6.9 12.3zM143.1 57.8C132.6 77.5 124 94 124 94.3c0 .4 3.9.7 8.8.7h8.7L156 67.5 170.5 40h41.6l-2.5 4.2c-3.7 6.6-43.1 77.9-45 81.6l-1.7 3.3 23.2 42.7c12.7 23.5 23.8 43.7 24.6 44.9l1.3 2.3h-41.6L156 192l-14.5-27h-8.7c-4.9 0-8.8.3-8.8.7 0 .5 8.5 16.3 18.9 35.3l18.8 34.5 39.1.3c21.6.1 39.2-.1 39.2-.5s-12.7-24.5-28.2-53.6c-27.6-51.9-28.1-52.9-26.6-55.5 3.9-6.9 54.8-100.9 55.3-102.5.7-1.6-1.6-1.7-38.8-1.7h-39.5l-19.1 35.8z"/><path d="M183.7 52.2c-24 41.1-43.7 75.8-43.6 76.9 0 .8 10.9 20.5 24.3 43.9l24.2 42.5 9.2.3 9.3.3-3-5.3c-10.9-19.6-44.1-81.1-44.1-81.9 0-.7 32.3-59.6 44.2-80.7l2.9-5.2h-18l-5.4 9.2z"/><path d="M115.8 174.7c-2.5 4.3-9.3 15.7-15.1 25.4l-10.5 17.7 4.3 7.2c2.3 3.9 4.7 7.6 5.2 8.1.7.7 4.4-4.7 10.9-15.6 5.4-9.1 10.1-16.5 10.4-16.5.3 0 7 11.4 14.9 25.3s14.6 25.4 14.8 25.7c.2.2 19.3.9 42.4 1.5l41.9 1 2.6-6.5c1.4-3.6 2.8-7.1 3.1-7.8.4-.9-8-1.2-40-1.2h-40.5l-18.6-34.3c-10.2-18.8-19.2-35.1-19.9-36.1-1.2-1.6-1.7-1.1-5.9 6.1zM67.9 226.7c-2.4 4.3-4.5 8.1-4.7 8.5-.2.5 7.3.8 16.7.8 9.4 0 17.1-.2 17.1-.5s-2.1-4.1-4.6-8.5l-4.7-8H72.4l-4.5 7.7z"/></svg>