<svg width="21" height="21" viewBox="0 0 21 21" fill="none" xmlns="http://www.w3.org/2000/svg">
<path d="M5.2832 0.0195312C2.48242 0.0195312 0.283203 2.21875 0.283203 5.01953C0.283203 9.32031 5.2832 14.332 5.2832 14.332C5.2832 14.332 10.2832 9.32031 10.2832 5.01953C10.2832 2.21875 8.08398 0.0195312 5.2832 0.0195312ZM5.2832 3.20703C6.2832 3.20703 7.0957 4.01953 7.0957 5.01953C7.0957 6.01953 6.2832 6.83203 5.2832 6.83203C4.2832 6.83203 3.4707 6.01953 3.4707 5.01953C3.4707 4.01953 4.2832 3.20703 5.2832 3.20703ZM15.2832 6.01953C12.4824 6.01953 10.2832 8.21875 10.2832 11.0195C10.2832 15.3203 15.2832 20.332 15.2832 20.332C15.2832 20.332 20.2832 15.3203 20.2832 11.0195C20.2832 8.21875 18.084 6.01953 15.2832 6.01953ZM15.2832 9.20703C16.2832 9.20703 17.0957 10.0195 17.0957 11.0195C17.0957 12.0195 16.2832 12.832 15.2832 12.832C14.2832 12.832 13.4707 12.0195 13.4707 11.0195C13.4707 10.0195 14.2832 9.20703 15.2832 9.20703Z" fill="#4FAF73"/>
</svg>
