<svg width="18" height="17" viewBox="0 0 18 17" fill="none" xmlns="http://www.w3.org/2000/svg">
<path d="M17.99 2.42C17.99 1.08 16.93 0 15.63 0H7.84C7.04 0 6.26 0.33 5.7 0.89L0.58 6.09C0.21 6.46 0 6.96 0 7.49V14.58C0 15.92 1.06 17 2.36 17H15.64C16.94 17 18 15.92 18 14.58L17.99 2.42ZM15 12H12C11.448 12 11 11.552 11 11C11 10.448 11.448 10 12 10H15C15.552 10 16 10.448 16 11C16 11.552 15.552 12 15 12ZM2.49 7L7.12 2.3C7.31 2.11 7.57 2 7.84 2H15.63C15.83 2 15.99 2.19 15.99 2.42L16 7H2.49Z" fill="#4FAF73"/>
</svg>
