<svg width="18" height="16" viewBox="0 0 18 16" fill="none" xmlns="http://www.w3.org/2000/svg">
<path d="M15.947 1.013C15.74 0.407 15.169 0 14.529 0H3.471C2.831 0 2.26 0.407 2.053 1.013L0 7V15C0 15.552 0.448 16 1 16H2C2.552 16 3 15.552 3 15V14H15V15C15 15.552 15.448 16 16 16H17C17.552 16 18 15.552 18 15V7L15.947 1.013ZM3.829 2H14.172L15.543 6H2.457L3.829 2ZM3.5 11C2.672 11 2 10.328 2 9.5C2 8.672 2.672 8 3.5 8C4.328 8 5 8.672 5 9.5C5 10.328 4.328 11 3.5 11ZM14.5 11C13.672 11 13 10.328 13 9.5C13 8.672 13.672 8 14.5 8C15.328 8 16 8.672 16 9.5C16 10.328 15.328 11 14.5 11Z" fill="#4FAF73"/>
</svg>
