<svg width="16" height="16" viewBox="0 0 16 16" fill="none" xmlns="http://www.w3.org/2000/svg">
<path d="M1.76163 0.112403C2.07963 0.0134026 2.40801 -0.0194099 2.73038 0.0108401C3.05276 0.0410901 3.36847 0.135137 3.66397 0.290137C4.25497 0.602137 4.68963 1.12479 4.88663 1.76279C4.90463 1.81679 4.96265 2.02268 5.05265 2.35068L7.28702 10.0011H13.3534C14.6614 10.0011 15.8532 10.9403 15.9862 12.2413C16.1382 13.7363 14.9639 15.0011 13.4999 15.0011H4.38468C3.96868 15.0011 3.59708 14.7505 3.45108 14.3604C2.41508 11.5824 0.79363 5.70837 0.26163 3.78037C0.17863 3.48137 0.12624 3.29036 0.11124 3.23936C-0.29476 1.92036 0.44563 0.518403 1.76163 0.112403Z" fill="#4FAF73"/>
</svg>
