<svg
  width="232"
  height="232"
  viewBox="0 0 232 232"
  fill="none"
  xmlns="http://www.w3.org/2000/svg"
>
  <g id="gauge">
    <rect width="232" height="232" fill="white" />
    <g id="sectors">
      <path
        id="sector-high"
        d="M16.5096 142.658C12.4206 127.398 11.8969 111.401 14.9791 95.9057C18.0613 80.4103 24.6668 65.8317 34.2846 53.2976C43.9024 40.7634 56.2746 30.6098 70.4443 23.6221C84.6139 16.6344 100.201 13 116 13C131.799 13 147.386 16.6344 161.556 23.6221C175.725 30.6098 188.098 40.7634 197.715 53.2976C207.333 65.8317 213.939 80.4103 217.021 95.9057C220.103 111.401 219.579 127.398 215.49 142.658"
        stroke="#27AE60"
        stroke-width="24"
      />
      <path
        id="sector-medium"
        d="M16.5096 142.658C12.9109 129.228 12.0688 115.208 14.0339 101.443C15.9989 87.6783 20.7306 74.454 27.9437 62.567C35.1568 50.68 44.7019 40.3765 56.0039 32.2774C67.3059 24.1784 80.1307 18.4515 93.7053 15.4418C107.28 12.4322 121.323 12.2022 134.989 14.7656C148.655 17.329 161.661 22.6329 173.222 30.3574C184.783 38.082 194.661 48.0674 202.259 59.7117C209.858 71.3561 215.02 84.4184 217.435 98.1114"
        stroke="#F39C12"
        stroke-width="24"
      />
      <path
        id="sector-low"
        d="M16.5096 142.658C10.3424 119.642 12.3461 95.1995 22.1794 73.4949C32.0126 51.7902 49.067 34.1663 70.437 23.6257C91.807 13.0851 116.171 10.2798 139.377 15.6879C162.583 21.096 183.197 34.3828 197.706 53.2847"
        stroke="#C0392B"
        stroke-width="24"
      />
    </g>
    <g id="indicator">
      <path
        id="arrow"
        d="M43.5556 135.411L7.76557 156.389L2.07155 135.139L43.5556 135.411Z"
        fill="#313D3D"
      />
    </g>
    <g id="info-icon">
      <path
        id="Vector"
        d="M115.428 159C106.61 159 99.428 166.182 99.428 175C99.428 183.818 106.61 191 115.428 191C124.246 191 131.428 183.818 131.428 175C131.428 166.182 124.246 159 115.428 159ZM115.428 162.2C122.516 162.2 128.228 167.912 128.228 175C128.228 182.088 122.516 187.8 115.428 187.8C108.34 187.8 102.628 182.088 102.628 175C102.628 167.912 108.34 162.2 115.428 162.2ZM113.828 167V170.2H117.028V167H113.828ZM113.828 173.4V183H117.028V173.4H113.828Z"
        fill="#95A5A6"
      />
    </g>
    <g id="numbers">
      <text
        id="0,98"
        fill="#27AE60"
        xml:space="preserve"
        style="white-space: pre"
        font-family="Roboto"
        font-size="42"
        font-weight="bold"
        letter-spacing="0em"
      >
        <tspan x="76.1973" y="110.965">0,98</tspan>
      </text>
      <text
        id="POSITIVE"
        fill="#393939"
        xml:space="preserve"
        style="white-space: pre"
        font-family="Roboto"
        font-size="20"
        font-weight="bold"
        letter-spacing="0em"
      >
        <tspan x="72.4355" y="140.555">POSITIVE</tspan>
      </text>
    </g>
  </g>
</svg>
