<svg width="222" height="62" viewBox="0 0 222 62" fill="none" xmlns="http://www.w3.org/2000/svg">
<path fill-rule="evenodd" clip-rule="evenodd" d="M135.684 40.531C135.684 32.2169 131.055 25.3501 122.541 25.3501C114.069 25.3501 109.481 32.1749 109.481 40.531C109.481 48.9285 114.069 55.9188 122.541 55.9188C131.055 55.9188 135.684 48.8871 135.684 40.531ZM102.207 40.531C102.207 28.7832 110.432 19.2695 122.541 19.2695C134.65 19.2695 142.958 28.7832 142.958 40.531C142.958 52.3615 134.65 62 122.541 62C110.432 62 102.207 52.3615 102.207 40.531Z" fill="white"/>
<path fill-rule="evenodd" clip-rule="evenodd" d="M81.1106 19.2695C75.3016 19.2695 70.281 21.9687 67.5422 27.8247C65.509 21.7197 60.5711 19.2695 54.9696 19.2695C49.9693 19.2695 45.5628 21.317 43.1092 26.0824C42.921 24.7297 42.3589 23.4983 41.5214 22.5013C40.3291 20.9665 38.4721 19.9751 36.3794 19.9751H36.2961C36.227 19.9734 36.1595 19.9649 36.0898 19.9649V57.9141C36.0898 59.6309 37.3076 61.063 38.926 61.3931C39.155 61.4402 39.3913 61.464 39.6338 61.464H39.6786C41.6154 61.464 43.1851 59.8935 43.1851 57.9549V37.4603C43.1851 30.8148 47.1269 25.8311 53.6005 25.8311C59.8656 25.8311 62.3555 30.2335 62.3555 36.795V57.9549C62.3555 59.8935 63.9252 61.464 65.8615 61.464C67.7984 61.464 69.368 59.8935 69.368 57.9549V37.4603C69.368 30.8148 73.3517 25.8311 79.7415 25.8311C86.2146 25.8311 88.5379 30.3996 88.5379 37.8335V57.9549C88.5379 59.8935 90.1076 61.464 92.0444 61.464H92.0858C94.0227 61.464 95.5924 59.8935 95.5924 57.9549V37.0032C95.5924 26.9944 91.2352 19.2695 81.1106 19.2695Z" fill="white"/>
<path fill-rule="evenodd" clip-rule="evenodd" d="M19.9492 19.9648V57.9141C19.9492 59.8748 21.5376 61.464 23.4971 61.464C25.4561 61.464 27.0445 59.8748 27.0445 57.9141V27.0664C27.0445 23.1444 23.8677 19.9648 19.9492 19.9648Z" fill="white"/>
<path fill-rule="evenodd" clip-rule="evenodd" d="M7.09073 14.194H14.1911V7.09698C14.1911 3.17217 11.0121 0 7.09073 0C3.17845 0 0 3.17217 0 7.09698C0 9.06392 0.79957 10.8335 2.07854 12.1136C3.35695 13.4033 5.13459 14.194 7.09073 14.194Z" fill="white"/>
<path fill-rule="evenodd" clip-rule="evenodd" d="M143.68 19.9751C148.298 19.9751 152.432 22.8404 154.058 27.1674L163.206 51.5216C163.328 51.8454 163.784 51.8454 163.906 51.5216L173.087 27.164C174.717 22.8382 178.853 19.9751 183.473 19.9751L167.617 58.7371C166.943 60.387 165.338 61.464 163.557 61.464C161.775 61.464 160.169 60.3853 159.495 58.7337L143.68 19.9751Z" fill="white"/>
<path fill-rule="evenodd" clip-rule="evenodd" d="M191.748 37.3044C199.889 37.2215 215.677 37.0151 215.677 30.1898C215.677 27.0874 212.288 25.1845 207.783 25.1845C199.972 25.1845 194.392 30.6033 191.748 37.3044ZM190.301 43.0129C190.178 44.0469 190.095 45.04 190.095 46.0325C190.095 52.1545 192.988 55.629 199.807 55.629C203.708 55.629 207.007 54.4516 210.238 52.163C211.549 51.2346 213.353 51.4632 214.401 52.6809C215.598 54.0733 215.356 56.2115 213.853 57.2664C209.222 60.5191 204.546 62 199.146 62C187.945 62 183.027 55.7118 183.027 46.1153C183.027 32.4233 193.07 19.2695 207.99 19.2695C217.413 19.2695 222.001 24.5226 222.001 30.314C222.001 40.6138 207.246 43.0537 190.301 43.0129Z" fill="white"/>
</svg>
