<svg version="1" xmlns="http://www.w3.org/2000/svg" width="933.333" height="933.333" viewBox="0 0 700.000000 700.000000"><path d="M296.5 157.7c-9 2.7-15.9 9.1-20.2 18.8-1.6 3.7-1.7 11.6-1.7 118v114l2.3 5.2c3.9 8.7 13 16 22.6 18.1 12.3 2.7 27.1-4.4 33.1-15.9 3.9-7.5 4-10 3.8-123.9-.2-121.4.2-114.6-6.1-122.9-3.9-5.1-6.1-6.9-12-9.7-6.4-3.1-14.9-3.7-21.8-1.7zM221.5 252.7c-8.8 1.7-15.5 6.9-19.1 14.8l-2.4 5 .3 42.5c.2 41.6.2 42.6 2.4 46.6 4.1 7.6 12.1 13.1 19.9 13.5 13.2.7 24-7.4 26.1-19.6.5-2.8.8-22.6.8-44-.1-37.9-.2-39.1-2.3-43.9-1.2-2.7-3.6-6.2-5.3-7.8-5.3-5.1-14.4-8.2-20.4-7.1zM381.8 266.5c-8.6 3.2-15.7 10.1-19 18.5-2.1 5.5-2.1 5.6-2.1 118v112.5l2.3 5.9c7.1 18.6 30.6 25.4 46.9 13.6 4.8-3.5 10.3-11.7 11.8-17.5.6-2.5.9-45.9.9-116l-.1-112-2.9-6.3c-3.5-7.6-9.6-13.3-17.2-16.2-6.3-2.3-15.1-2.5-20.6-.5zM464.2 322.9c-6.3 2.2-11.4 6.7-14.4 13.1-2.2 4.4-2.3 5.3-2.4 45-.1 45.3.2 47.8 6.3 55 4.7 5.5 11.2 8.3 18.9 8.3 9.6-.1 16.7-4.6 21.7-13.8 2.1-3.9 2.2-5 2.3-46 .2-38.9.1-42.3-1.7-46.9-4.8-12.6-18.1-18.9-30.7-14.7zM159.5 325.4c-7.1 3.1-8.6 7.5-8.6 24 .1 10.6.4 13.4 1.9 16 5.8 9.9 19.7 10.1 25.3.3 2-3.7 2.3-5.4 2.3-16.8 0-15.7-1.4-19.8-7.9-22.9-4.8-2.3-8.7-2.5-13-.6zM524.5 325.9c-7 4.3-8.2 7.8-7.9 24.7.2 10.8.5 12.5 2.5 15.7 5.8 8.8 18.8 8.9 24.9 0 2.2-3.2 2.4-4.5 2.5-16.6.2-16.5-1.5-21.1-8.8-24.2-4.9-2-9.6-1.9-13.2.4z"/></svg>